G04*
G04 #@! TF.GenerationSoftware,Altium Limited,Altium Designer,20.0.11 (256)*
G04*
G04 Layer_Color=16711935*
%FSLAX43Y43*%
%MOMM*%
G71*
G01*
G75*
%ADD10C,0.254*%
%ADD50R,1.118X0.991*%
%ADD54R,0.802X0.737*%
%ADD57C,0.356*%
%ADD60C,1.102*%
%ADD61C,1.502*%
%ADD62C,1.152*%
%ADD63R,1.502X2.301*%
%ADD64C,1.002*%
%ADD65C,1.880*%
%ADD66R,1.880X1.880*%
%ADD67C,2.102*%
%ADD68R,1.880X1.880*%
%ADD69C,1.626*%
G36*
X56954Y80671D02*
Y79571D01*
X54444D01*
Y80671D01*
X56954Y80671D01*
D02*
G37*
G36*
X41154D02*
Y79571D01*
X38644D01*
Y80671D01*
X41154Y80671D01*
D02*
G37*
G36*
X56954Y78131D02*
Y77031D01*
X54444D01*
Y78131D01*
X56954Y78131D01*
D02*
G37*
G36*
X41154D02*
Y77031D01*
X38644D01*
Y78131D01*
X41154Y78131D01*
D02*
G37*
G36*
X56954Y75591D02*
Y74491D01*
X54444D01*
Y75591D01*
X56954Y75591D01*
D02*
G37*
G36*
X41154D02*
Y74491D01*
X38644D01*
Y75591D01*
X41154Y75591D01*
D02*
G37*
G36*
X56954Y73051D02*
Y71951D01*
X54444D01*
Y73051D01*
X56954Y73051D01*
D02*
G37*
G36*
X41154D02*
Y71951D01*
X38644D01*
Y73051D01*
X41154Y73051D01*
D02*
G37*
G36*
X22750Y69245D02*
X21650D01*
Y71755D01*
X22750D01*
X22750Y69245D01*
D02*
G37*
G36*
X30350Y68389D02*
X29250D01*
X29250Y70899D01*
X30350D01*
Y68389D01*
D02*
G37*
G36*
X37748Y68201D02*
X36648D01*
X36648Y70711D01*
X37748D01*
Y68201D01*
D02*
G37*
G36*
X35254Y67706D02*
X32744Y67706D01*
Y68806D01*
X35254D01*
Y67706D01*
D02*
G37*
G36*
Y66107D02*
X32744Y66107D01*
Y67207D01*
X35254D01*
Y66107D01*
D02*
G37*
G36*
X38522Y64294D02*
X36012Y64294D01*
Y65394D01*
X38522D01*
Y64294D01*
D02*
G37*
G36*
Y62871D02*
X36012Y62871D01*
Y63971D01*
X38522D01*
Y62871D01*
D02*
G37*
G36*
X14246Y52565D02*
X13146D01*
X13146Y55075D01*
X14246D01*
Y52565D01*
D02*
G37*
G36*
X45944Y50410D02*
X44844D01*
X44844Y52920D01*
X45944D01*
Y50410D01*
D02*
G37*
G36*
X20357Y46812D02*
X19257D01*
X19257Y49322D01*
X20357D01*
Y46812D01*
D02*
G37*
G36*
X19377Y36461D02*
X18277D01*
X18277Y38971D01*
X19377D01*
Y36461D01*
D02*
G37*
G36*
X24965Y-23621D02*
X25062Y-23635D01*
X25106Y-23643D01*
X25148Y-23654D01*
X25187Y-23663D01*
X25223Y-23674D01*
X25256Y-23685D01*
X25284Y-23696D01*
X25309Y-23707D01*
X25331Y-23715D01*
X25348Y-23724D01*
X25359Y-23729D01*
X25367Y-23732D01*
X25370Y-23735D01*
X25409Y-23760D01*
X25448Y-23785D01*
X25515Y-23843D01*
X25573Y-23901D01*
X25620Y-23962D01*
X25659Y-24015D01*
X25673Y-24037D01*
X25684Y-24060D01*
X25695Y-24076D01*
X25701Y-24087D01*
X25703Y-24096D01*
X25706Y-24098D01*
X25745Y-24190D01*
X25773Y-24282D01*
X25795Y-24371D01*
X25801Y-24412D01*
X25809Y-24451D01*
X25812Y-24487D01*
X25817Y-24518D01*
X25820Y-24548D01*
Y-24573D01*
X25823Y-24593D01*
Y-24607D01*
Y-24618D01*
Y-24620D01*
X25817Y-24723D01*
X25803Y-24820D01*
X25795Y-24865D01*
X25787Y-24906D01*
X25776Y-24948D01*
X25764Y-24984D01*
X25753Y-25017D01*
X25742Y-25045D01*
X25734Y-25073D01*
X25726Y-25092D01*
X25717Y-25112D01*
X25712Y-25123D01*
X25706Y-25131D01*
Y-25134D01*
X25656Y-25215D01*
X25601Y-25284D01*
X25542Y-25345D01*
X25487Y-25395D01*
X25434Y-25434D01*
X25415Y-25448D01*
X25395Y-25462D01*
X25379Y-25470D01*
X25367Y-25478D01*
X25359Y-25481D01*
X25356Y-25484D01*
X25312Y-25506D01*
X25267Y-25523D01*
X25179Y-25553D01*
X25093Y-25573D01*
X25012Y-25589D01*
X24976Y-25592D01*
X24943Y-25598D01*
X24912Y-25600D01*
X24887D01*
X24868Y-25603D01*
X24840D01*
X24762Y-25600D01*
X24687Y-25592D01*
X24618Y-25578D01*
X24557Y-25564D01*
X24532Y-25559D01*
X24507Y-25553D01*
X24485Y-25545D01*
X24465Y-25539D01*
X24451Y-25534D01*
X24440Y-25531D01*
X24435Y-25528D01*
X24432D01*
X24357Y-25498D01*
X24287Y-25462D01*
X24221Y-25423D01*
X24163Y-25387D01*
X24138Y-25370D01*
X24113Y-25353D01*
X24093Y-25339D01*
X24076Y-25328D01*
X24063Y-25317D01*
X24051Y-25309D01*
X24046Y-25306D01*
X24043Y-25303D01*
Y-24590D01*
X24859D01*
Y-24818D01*
X24293D01*
Y-25178D01*
X24326Y-25206D01*
X24365Y-25231D01*
X24407Y-25253D01*
X24446Y-25273D01*
X24479Y-25289D01*
X24510Y-25303D01*
X24521Y-25309D01*
X24526Y-25312D01*
X24532Y-25314D01*
X24535D01*
X24593Y-25334D01*
X24651Y-25351D01*
X24704Y-25362D01*
X24754Y-25367D01*
X24796Y-25373D01*
X24812D01*
X24829Y-25376D01*
X24857D01*
X24926Y-25373D01*
X24993Y-25362D01*
X25054Y-25348D01*
X25109Y-25334D01*
X25154Y-25317D01*
X25173Y-25312D01*
X25187Y-25306D01*
X25201Y-25301D01*
X25209Y-25295D01*
X25215Y-25292D01*
X25218D01*
X25276Y-25256D01*
X25329Y-25217D01*
X25373Y-25176D01*
X25409Y-25134D01*
X25440Y-25095D01*
X25459Y-25065D01*
X25467Y-25054D01*
X25470Y-25045D01*
X25476Y-25040D01*
Y-25037D01*
X25503Y-24967D01*
X25526Y-24895D01*
X25540Y-24823D01*
X25551Y-24754D01*
X25553Y-24723D01*
X25556Y-24695D01*
X25559Y-24668D01*
Y-24645D01*
X25562Y-24629D01*
Y-24615D01*
Y-24607D01*
Y-24604D01*
X25559Y-24526D01*
X25551Y-24457D01*
X25540Y-24390D01*
X25526Y-24332D01*
X25520Y-24307D01*
X25512Y-24285D01*
X25506Y-24265D01*
X25501Y-24248D01*
X25495Y-24235D01*
X25492Y-24226D01*
X25490Y-24221D01*
Y-24218D01*
X25470Y-24179D01*
X25451Y-24143D01*
X25431Y-24110D01*
X25412Y-24082D01*
X25395Y-24060D01*
X25381Y-24040D01*
X25370Y-24029D01*
X25367Y-24026D01*
X25337Y-23996D01*
X25304Y-23968D01*
X25267Y-23946D01*
X25234Y-23924D01*
X25206Y-23910D01*
X25184Y-23896D01*
X25168Y-23890D01*
X25162Y-23888D01*
X25112Y-23868D01*
X25062Y-23854D01*
X25009Y-23846D01*
X24962Y-23838D01*
X24920Y-23835D01*
X24904D01*
X24890Y-23832D01*
X24859D01*
X24807Y-23835D01*
X24757Y-23840D01*
X24712Y-23849D01*
X24673Y-23857D01*
X24640Y-23868D01*
X24615Y-23876D01*
X24601Y-23882D01*
X24596Y-23885D01*
X24554Y-23904D01*
X24518Y-23926D01*
X24485Y-23949D01*
X24460Y-23971D01*
X24440Y-23990D01*
X24424Y-24004D01*
X24415Y-24015D01*
X24412Y-24018D01*
X24387Y-24051D01*
X24368Y-24090D01*
X24349Y-24126D01*
X24332Y-24165D01*
X24321Y-24198D01*
X24312Y-24223D01*
X24310Y-24235D01*
X24307Y-24243D01*
X24304Y-24246D01*
Y-24248D01*
X24074Y-24187D01*
X24093Y-24118D01*
X24118Y-24057D01*
X24143Y-24001D01*
X24165Y-23957D01*
X24188Y-23921D01*
X24204Y-23896D01*
X24215Y-23879D01*
X24221Y-23874D01*
X24260Y-23829D01*
X24301Y-23793D01*
X24346Y-23760D01*
X24387Y-23732D01*
X24426Y-23713D01*
X24457Y-23696D01*
X24468Y-23690D01*
X24476Y-23688D01*
X24482Y-23685D01*
X24485D01*
X24548Y-23663D01*
X24615Y-23646D01*
X24676Y-23632D01*
X24734Y-23624D01*
X24787Y-23618D01*
X24809D01*
X24826Y-23615D01*
X24915D01*
X24965Y-23621D01*
D02*
G37*
G36*
X26467Y-25570D02*
X26198D01*
Y-25301D01*
X26467D01*
Y-25570D01*
D02*
G37*
G36*
X23679D02*
X22947D01*
X22880Y-25567D01*
X22822Y-25564D01*
X22769Y-25559D01*
X22724Y-25553D01*
X22688Y-25548D01*
X22661Y-25545D01*
X22644Y-25539D01*
X22638D01*
X22591Y-25525D01*
X22552Y-25512D01*
X22516Y-25495D01*
X22486Y-25478D01*
X22461Y-25467D01*
X22441Y-25456D01*
X22430Y-25448D01*
X22427Y-25445D01*
X22397Y-25420D01*
X22369Y-25389D01*
X22347Y-25359D01*
X22325Y-25331D01*
X22308Y-25303D01*
X22297Y-25284D01*
X22289Y-25270D01*
X22286Y-25264D01*
X22266Y-25220D01*
X22253Y-25176D01*
X22241Y-25134D01*
X22236Y-25095D01*
X22230Y-25062D01*
X22228Y-25034D01*
Y-25017D01*
Y-25015D01*
Y-25012D01*
X22230Y-24951D01*
X22241Y-24895D01*
X22258Y-24848D01*
X22275Y-24804D01*
X22291Y-24770D01*
X22308Y-24745D01*
X22319Y-24729D01*
X22322Y-24723D01*
X22361Y-24679D01*
X22402Y-24643D01*
X22450Y-24612D01*
X22491Y-24587D01*
X22530Y-24568D01*
X22563Y-24557D01*
X22575Y-24551D01*
X22583Y-24548D01*
X22588Y-24545D01*
X22591D01*
X22544Y-24518D01*
X22502Y-24490D01*
X22469Y-24459D01*
X22441Y-24432D01*
X22419Y-24409D01*
X22402Y-24387D01*
X22394Y-24376D01*
X22391Y-24371D01*
X22369Y-24329D01*
X22352Y-24290D01*
X22339Y-24251D01*
X22330Y-24215D01*
X22325Y-24185D01*
X22322Y-24160D01*
Y-24146D01*
Y-24140D01*
X22325Y-24093D01*
X22333Y-24046D01*
X22347Y-24004D01*
X22361Y-23965D01*
X22375Y-23932D01*
X22389Y-23910D01*
X22397Y-23893D01*
X22400Y-23888D01*
X22430Y-23846D01*
X22463Y-23807D01*
X22500Y-23776D01*
X22533Y-23751D01*
X22561Y-23732D01*
X22586Y-23718D01*
X22602Y-23710D01*
X22605Y-23707D01*
X22608D01*
X22661Y-23688D01*
X22719Y-23674D01*
X22777Y-23663D01*
X22833Y-23657D01*
X22883Y-23652D01*
X22905D01*
X22924Y-23649D01*
X23679D01*
Y-25570D01*
D02*
G37*
G36*
X21289Y-23618D02*
X21353Y-23627D01*
X21414Y-23638D01*
X21467Y-23649D01*
X21508Y-23660D01*
X21528Y-23665D01*
X21542Y-23671D01*
X21553Y-23677D01*
X21561Y-23679D01*
X21567Y-23682D01*
X21570D01*
X21625Y-23710D01*
X21675Y-23740D01*
X21717Y-23774D01*
X21750Y-23804D01*
X21775Y-23832D01*
X21794Y-23854D01*
X21808Y-23871D01*
X21811Y-23874D01*
Y-23876D01*
X21839Y-23924D01*
X21858Y-23971D01*
X21872Y-24018D01*
X21880Y-24060D01*
X21886Y-24096D01*
X21892Y-24123D01*
Y-24135D01*
Y-24143D01*
Y-24146D01*
Y-24148D01*
X21889Y-24196D01*
X21880Y-24240D01*
X21869Y-24282D01*
X21858Y-24318D01*
X21847Y-24346D01*
X21836Y-24368D01*
X21828Y-24382D01*
X21825Y-24387D01*
X21797Y-24426D01*
X21764Y-24462D01*
X21731Y-24493D01*
X21697Y-24518D01*
X21669Y-24540D01*
X21645Y-24554D01*
X21628Y-24565D01*
X21625Y-24568D01*
X21622D01*
X21600Y-24579D01*
X21575Y-24590D01*
X21520Y-24609D01*
X21456Y-24629D01*
X21395Y-24648D01*
X21339Y-24665D01*
X21314Y-24670D01*
X21292Y-24676D01*
X21275Y-24681D01*
X21261Y-24684D01*
X21253Y-24687D01*
X21250D01*
X21203Y-24698D01*
X21159Y-24709D01*
X21120Y-24720D01*
X21086Y-24729D01*
X21053Y-24737D01*
X21025Y-24745D01*
X21000Y-24751D01*
X20981Y-24759D01*
X20962Y-24765D01*
X20948Y-24768D01*
X20925Y-24776D01*
X20912Y-24779D01*
X20909Y-24781D01*
X20867Y-24798D01*
X20831Y-24818D01*
X20801Y-24837D01*
X20778Y-24854D01*
X20759Y-24870D01*
X20748Y-24881D01*
X20739Y-24890D01*
X20737Y-24892D01*
X20717Y-24917D01*
X20703Y-24945D01*
X20695Y-24973D01*
X20687Y-24995D01*
X20684Y-25017D01*
X20681Y-25034D01*
Y-25048D01*
Y-25051D01*
X20684Y-25084D01*
X20689Y-25115D01*
X20698Y-25142D01*
X20709Y-25165D01*
X20720Y-25187D01*
X20728Y-25201D01*
X20734Y-25212D01*
X20737Y-25215D01*
X20759Y-25242D01*
X20787Y-25264D01*
X20814Y-25284D01*
X20839Y-25303D01*
X20864Y-25314D01*
X20884Y-25326D01*
X20898Y-25331D01*
X20903Y-25334D01*
X20945Y-25348D01*
X20989Y-25359D01*
X21034Y-25364D01*
X21073Y-25370D01*
X21106Y-25373D01*
X21134Y-25376D01*
X21159D01*
X21220Y-25373D01*
X21275Y-25367D01*
X21325Y-25359D01*
X21370Y-25348D01*
X21406Y-25337D01*
X21434Y-25328D01*
X21442Y-25326D01*
X21450Y-25323D01*
X21453Y-25320D01*
X21456D01*
X21500Y-25298D01*
X21542Y-25273D01*
X21572Y-25248D01*
X21600Y-25223D01*
X21622Y-25203D01*
X21636Y-25184D01*
X21645Y-25173D01*
X21647Y-25170D01*
X21667Y-25134D01*
X21686Y-25095D01*
X21697Y-25054D01*
X21708Y-25017D01*
X21717Y-24981D01*
X21722Y-24956D01*
Y-24945D01*
X21725Y-24937D01*
Y-24934D01*
Y-24931D01*
X21964Y-24954D01*
X21958Y-25023D01*
X21947Y-25090D01*
X21930Y-25148D01*
X21911Y-25201D01*
X21892Y-25242D01*
X21883Y-25259D01*
X21878Y-25273D01*
X21869Y-25284D01*
X21867Y-25292D01*
X21861Y-25298D01*
Y-25301D01*
X21819Y-25353D01*
X21775Y-25401D01*
X21728Y-25439D01*
X21683Y-25473D01*
X21645Y-25498D01*
X21611Y-25514D01*
X21600Y-25520D01*
X21592Y-25525D01*
X21586Y-25528D01*
X21583D01*
X21514Y-25553D01*
X21442Y-25573D01*
X21370Y-25584D01*
X21300Y-25595D01*
X21267Y-25598D01*
X21239Y-25600D01*
X21214D01*
X21192Y-25603D01*
X21148D01*
X21073Y-25600D01*
X21003Y-25592D01*
X20939Y-25578D01*
X20887Y-25564D01*
X20842Y-25553D01*
X20823Y-25545D01*
X20806Y-25539D01*
X20795Y-25534D01*
X20787Y-25531D01*
X20781Y-25528D01*
X20778D01*
X20720Y-25498D01*
X20670Y-25464D01*
X20626Y-25428D01*
X20590Y-25395D01*
X20562Y-25367D01*
X20542Y-25342D01*
X20528Y-25326D01*
X20526Y-25323D01*
Y-25320D01*
X20495Y-25267D01*
X20473Y-25217D01*
X20459Y-25170D01*
X20448Y-25126D01*
X20442Y-25087D01*
X20437Y-25056D01*
Y-25045D01*
Y-25037D01*
Y-25034D01*
Y-25031D01*
X20440Y-24976D01*
X20448Y-24923D01*
X20462Y-24876D01*
X20476Y-24837D01*
X20492Y-24804D01*
X20503Y-24779D01*
X20515Y-24765D01*
X20517Y-24759D01*
X20551Y-24718D01*
X20590Y-24679D01*
X20631Y-24645D01*
X20673Y-24615D01*
X20709Y-24593D01*
X20739Y-24576D01*
X20751Y-24570D01*
X20759Y-24565D01*
X20764Y-24562D01*
X20767D01*
X20789Y-24551D01*
X20817Y-24543D01*
X20848Y-24532D01*
X20881Y-24520D01*
X20950Y-24501D01*
X21023Y-24482D01*
X21056Y-24473D01*
X21086Y-24465D01*
X21117Y-24457D01*
X21142Y-24451D01*
X21161Y-24446D01*
X21178Y-24443D01*
X21189Y-24440D01*
X21192D01*
X21248Y-24426D01*
X21297Y-24415D01*
X21342Y-24401D01*
X21381Y-24390D01*
X21417Y-24376D01*
X21447Y-24365D01*
X21475Y-24354D01*
X21500Y-24346D01*
X21520Y-24334D01*
X21536Y-24326D01*
X21547Y-24321D01*
X21558Y-24312D01*
X21572Y-24304D01*
X21575Y-24301D01*
X21600Y-24273D01*
X21617Y-24246D01*
X21631Y-24218D01*
X21639Y-24190D01*
X21645Y-24168D01*
X21647Y-24148D01*
Y-24137D01*
Y-24132D01*
X21642Y-24087D01*
X21631Y-24049D01*
X21614Y-24015D01*
X21595Y-23985D01*
X21578Y-23962D01*
X21561Y-23943D01*
X21550Y-23932D01*
X21545Y-23929D01*
X21522Y-23915D01*
X21500Y-23901D01*
X21447Y-23879D01*
X21392Y-23865D01*
X21336Y-23854D01*
X21286Y-23849D01*
X21264Y-23846D01*
X21248Y-23843D01*
X21209D01*
X21131Y-23846D01*
X21062Y-23857D01*
X21006Y-23874D01*
X20959Y-23890D01*
X20923Y-23907D01*
X20895Y-23924D01*
X20881Y-23935D01*
X20875Y-23937D01*
X20837Y-23976D01*
X20806Y-24018D01*
X20781Y-24062D01*
X20764Y-24107D01*
X20753Y-24148D01*
X20745Y-24179D01*
X20742Y-24193D01*
X20739Y-24201D01*
Y-24207D01*
Y-24210D01*
X20495Y-24190D01*
X20501Y-24129D01*
X20515Y-24073D01*
X20528Y-24021D01*
X20548Y-23976D01*
X20565Y-23940D01*
X20578Y-23912D01*
X20584Y-23904D01*
X20590Y-23896D01*
X20592Y-23893D01*
Y-23890D01*
X20628Y-23843D01*
X20667Y-23801D01*
X20709Y-23765D01*
X20751Y-23738D01*
X20787Y-23713D01*
X20814Y-23699D01*
X20826Y-23693D01*
X20834Y-23688D01*
X20839Y-23685D01*
X20842D01*
X20903Y-23663D01*
X20970Y-23646D01*
X21031Y-23632D01*
X21089Y-23624D01*
X21142Y-23618D01*
X21161D01*
X21181Y-23615D01*
X21217D01*
X21289Y-23618D01*
D02*
G37*
G36*
X63016Y-23945D02*
X63063Y-23954D01*
X63104Y-23962D01*
X63140Y-23973D01*
X63171Y-23987D01*
X63193Y-23995D01*
X63207Y-24004D01*
X63213Y-24006D01*
X63252Y-24031D01*
X63285Y-24059D01*
X63315Y-24087D01*
X63340Y-24115D01*
X63360Y-24137D01*
X63376Y-24156D01*
X63385Y-24167D01*
X63388Y-24173D01*
Y-23973D01*
X63599D01*
Y-25367D01*
X63363D01*
Y-24645D01*
X63360Y-24578D01*
X63357Y-24520D01*
X63351Y-24470D01*
X63343Y-24428D01*
X63335Y-24398D01*
X63329Y-24376D01*
X63326Y-24362D01*
X63324Y-24356D01*
X63307Y-24320D01*
X63288Y-24290D01*
X63268Y-24262D01*
X63249Y-24240D01*
X63229Y-24223D01*
X63215Y-24212D01*
X63204Y-24203D01*
X63202Y-24201D01*
X63168Y-24184D01*
X63138Y-24170D01*
X63104Y-24162D01*
X63077Y-24153D01*
X63054Y-24151D01*
X63035Y-24148D01*
X63018D01*
X62971Y-24151D01*
X62932Y-24159D01*
X62899Y-24173D01*
X62874Y-24187D01*
X62855Y-24203D01*
X62841Y-24215D01*
X62832Y-24226D01*
X62830Y-24228D01*
X62810Y-24262D01*
X62796Y-24298D01*
X62785Y-24337D01*
X62780Y-24376D01*
X62774Y-24409D01*
X62771Y-24439D01*
Y-24451D01*
Y-24456D01*
Y-24462D01*
Y-24464D01*
Y-25367D01*
X62535D01*
Y-24559D01*
X62530Y-24484D01*
X62519Y-24420D01*
X62505Y-24367D01*
X62485Y-24323D01*
X62469Y-24290D01*
X62452Y-24267D01*
X62441Y-24253D01*
X62438Y-24248D01*
X62399Y-24215D01*
X62358Y-24190D01*
X62316Y-24173D01*
X62277Y-24159D01*
X62244Y-24153D01*
X62216Y-24151D01*
X62205Y-24148D01*
X62191D01*
X62160Y-24151D01*
X62136Y-24153D01*
X62111Y-24159D01*
X62091Y-24167D01*
X62072Y-24176D01*
X62061Y-24181D01*
X62052Y-24184D01*
X62049Y-24187D01*
X62027Y-24203D01*
X62011Y-24220D01*
X61997Y-24237D01*
X61986Y-24253D01*
X61977Y-24267D01*
X61972Y-24278D01*
X61966Y-24287D01*
Y-24290D01*
X61958Y-24315D01*
X61952Y-24348D01*
X61949Y-24381D01*
X61947Y-24414D01*
X61944Y-24445D01*
Y-24470D01*
Y-24487D01*
Y-24489D01*
Y-24492D01*
Y-25367D01*
X61708D01*
Y-24412D01*
Y-24367D01*
X61714Y-24328D01*
X61719Y-24290D01*
X61725Y-24256D01*
X61733Y-24223D01*
X61744Y-24195D01*
X61752Y-24170D01*
X61763Y-24145D01*
X61775Y-24126D01*
X61783Y-24106D01*
X61802Y-24081D01*
X61813Y-24065D01*
X61819Y-24059D01*
X61863Y-24020D01*
X61916Y-23992D01*
X61969Y-23970D01*
X62019Y-23956D01*
X62066Y-23948D01*
X62086Y-23945D01*
X62105D01*
X62119Y-23942D01*
X62138D01*
X62188Y-23945D01*
X62233Y-23954D01*
X62277Y-23965D01*
X62319Y-23981D01*
X62358Y-24001D01*
X62394Y-24020D01*
X62424Y-24042D01*
X62455Y-24065D01*
X62483Y-24090D01*
X62505Y-24112D01*
X62524Y-24131D01*
X62541Y-24151D01*
X62555Y-24167D01*
X62563Y-24178D01*
X62569Y-24187D01*
X62571Y-24190D01*
X62588Y-24148D01*
X62610Y-24112D01*
X62635Y-24081D01*
X62657Y-24056D01*
X62680Y-24034D01*
X62696Y-24020D01*
X62707Y-24012D01*
X62713Y-24009D01*
X62752Y-23987D01*
X62793Y-23970D01*
X62835Y-23959D01*
X62877Y-23951D01*
X62910Y-23945D01*
X62941Y-23942D01*
X62966D01*
X63016Y-23945D01*
D02*
G37*
G36*
X49343D02*
X49401Y-23951D01*
X49457Y-23959D01*
X49501Y-23967D01*
X49540Y-23976D01*
X49568Y-23984D01*
X49579Y-23987D01*
X49587Y-23990D01*
X49590Y-23992D01*
X49593D01*
X49640Y-24012D01*
X49681Y-24037D01*
X49717Y-24059D01*
X49748Y-24081D01*
X49770Y-24104D01*
X49787Y-24120D01*
X49798Y-24131D01*
X49801Y-24134D01*
X49826Y-24170D01*
X49848Y-24209D01*
X49865Y-24248D01*
X49878Y-24284D01*
X49890Y-24320D01*
X49898Y-24345D01*
X49901Y-24356D01*
Y-24364D01*
X49903Y-24367D01*
Y-24370D01*
X49673Y-24401D01*
X49656Y-24351D01*
X49640Y-24306D01*
X49620Y-24270D01*
X49604Y-24242D01*
X49587Y-24220D01*
X49573Y-24206D01*
X49562Y-24198D01*
X49559Y-24195D01*
X49526Y-24176D01*
X49487Y-24162D01*
X49445Y-24151D01*
X49407Y-24145D01*
X49368Y-24140D01*
X49340Y-24137D01*
X49312D01*
X49248Y-24140D01*
X49193Y-24148D01*
X49148Y-24162D01*
X49109Y-24176D01*
X49082Y-24192D01*
X49060Y-24203D01*
X49046Y-24215D01*
X49043Y-24217D01*
X49021Y-24242D01*
X49004Y-24273D01*
X48990Y-24306D01*
X48982Y-24339D01*
X48976Y-24370D01*
X48973Y-24398D01*
Y-24414D01*
Y-24417D01*
Y-24420D01*
Y-24426D01*
Y-24437D01*
Y-24456D01*
X48976Y-24473D01*
Y-24478D01*
Y-24481D01*
X49004Y-24489D01*
X49035Y-24498D01*
X49098Y-24514D01*
X49171Y-24528D01*
X49237Y-24542D01*
X49270Y-24548D01*
X49301Y-24550D01*
X49329Y-24556D01*
X49351Y-24559D01*
X49370Y-24562D01*
X49384D01*
X49395Y-24564D01*
X49398D01*
X49448Y-24570D01*
X49490Y-24578D01*
X49526Y-24584D01*
X49554Y-24589D01*
X49576Y-24592D01*
X49593Y-24598D01*
X49604Y-24600D01*
X49606D01*
X49643Y-24612D01*
X49673Y-24623D01*
X49704Y-24637D01*
X49729Y-24648D01*
X49751Y-24659D01*
X49765Y-24670D01*
X49776Y-24675D01*
X49779Y-24678D01*
X49806Y-24698D01*
X49829Y-24720D01*
X49851Y-24742D01*
X49867Y-24764D01*
X49881Y-24784D01*
X49892Y-24800D01*
X49898Y-24811D01*
X49901Y-24814D01*
X49915Y-24845D01*
X49926Y-24878D01*
X49934Y-24909D01*
X49940Y-24939D01*
X49942Y-24964D01*
X49945Y-24984D01*
Y-24995D01*
Y-25000D01*
X49942Y-25034D01*
X49940Y-25061D01*
X49926Y-25120D01*
X49906Y-25167D01*
X49884Y-25208D01*
X49862Y-25242D01*
X49842Y-25267D01*
X49829Y-25281D01*
X49823Y-25286D01*
X49773Y-25322D01*
X49717Y-25350D01*
X49656Y-25369D01*
X49601Y-25383D01*
X49551Y-25392D01*
X49529Y-25394D01*
X49509D01*
X49493Y-25397D01*
X49470D01*
X49420Y-25394D01*
X49370Y-25389D01*
X49326Y-25383D01*
X49287Y-25375D01*
X49257Y-25367D01*
X49232Y-25358D01*
X49215Y-25356D01*
X49209Y-25353D01*
X49162Y-25333D01*
X49118Y-25308D01*
X49076Y-25281D01*
X49035Y-25256D01*
X49001Y-25231D01*
X48976Y-25211D01*
X48960Y-25197D01*
X48957Y-25192D01*
X48954D01*
X48948Y-25228D01*
X48943Y-25261D01*
X48937Y-25292D01*
X48929Y-25317D01*
X48921Y-25339D01*
X48915Y-25353D01*
X48912Y-25364D01*
X48910Y-25367D01*
X48662D01*
X48676Y-25336D01*
X48690Y-25306D01*
X48701Y-25278D01*
X48707Y-25253D01*
X48715Y-25231D01*
X48718Y-25214D01*
X48721Y-25203D01*
Y-25200D01*
X48724Y-25181D01*
X48726Y-25156D01*
Y-25128D01*
X48729Y-25097D01*
X48732Y-25028D01*
Y-24959D01*
X48735Y-24892D01*
Y-24861D01*
Y-24836D01*
Y-24814D01*
Y-24798D01*
Y-24786D01*
Y-24784D01*
Y-24467D01*
Y-24414D01*
X48737Y-24367D01*
X48740Y-24331D01*
Y-24301D01*
X48743Y-24278D01*
X48746Y-24262D01*
X48749Y-24253D01*
Y-24251D01*
X48757Y-24215D01*
X48768Y-24184D01*
X48779Y-24159D01*
X48793Y-24134D01*
X48804Y-24117D01*
X48812Y-24104D01*
X48818Y-24095D01*
X48821Y-24092D01*
X48843Y-24070D01*
X48868Y-24048D01*
X48896Y-24031D01*
X48923Y-24015D01*
X48948Y-24004D01*
X48968Y-23995D01*
X48982Y-23990D01*
X48987Y-23987D01*
X49032Y-23973D01*
X49079Y-23962D01*
X49126Y-23954D01*
X49173Y-23948D01*
X49215Y-23945D01*
X49246Y-23942D01*
X49276D01*
X49343Y-23945D01*
D02*
G37*
G36*
X47027Y-25367D02*
X46791D01*
Y-24814D01*
X46628Y-24656D01*
X46164Y-25367D01*
X45872D01*
X46461Y-24492D01*
X45925Y-23973D01*
X46233D01*
X46791Y-24542D01*
Y-23446D01*
X47027D01*
Y-25367D01*
D02*
G37*
G36*
X52080D02*
X51836D01*
Y-23731D01*
X51280Y-25367D01*
X51053D01*
X50492Y-23759D01*
Y-25367D01*
X50248D01*
Y-23446D01*
X50589D01*
X51050Y-24784D01*
X51075Y-24856D01*
X51094Y-24917D01*
X51114Y-24970D01*
X51128Y-25014D01*
X51139Y-25047D01*
X51147Y-25072D01*
X51150Y-25086D01*
X51153Y-25092D01*
X51164Y-25053D01*
X51178Y-25009D01*
X51194Y-24961D01*
X51208Y-24914D01*
X51222Y-24873D01*
X51233Y-24839D01*
X51239Y-24825D01*
X51242Y-24817D01*
X51244Y-24811D01*
Y-24809D01*
X51700Y-23446D01*
X52080D01*
Y-25367D01*
D02*
G37*
G36*
X66544Y-23629D02*
Y-23973D01*
X66719D01*
Y-24156D01*
X66544D01*
Y-24961D01*
Y-25000D01*
Y-25034D01*
X66541Y-25064D01*
X66539Y-25095D01*
Y-25120D01*
X66536Y-25142D01*
X66530Y-25178D01*
X66525Y-25206D01*
X66522Y-25225D01*
X66516Y-25236D01*
Y-25239D01*
X66505Y-25264D01*
X66489Y-25283D01*
X66472Y-25303D01*
X66458Y-25317D01*
X66441Y-25331D01*
X66430Y-25339D01*
X66422Y-25344D01*
X66419Y-25347D01*
X66389Y-25361D01*
X66358Y-25369D01*
X66325Y-25378D01*
X66291Y-25381D01*
X66264Y-25383D01*
X66242Y-25386D01*
X66219D01*
X66158Y-25383D01*
X66128Y-25381D01*
X66100Y-25375D01*
X66075Y-25372D01*
X66056Y-25369D01*
X66044Y-25367D01*
X66039D01*
X66069Y-25158D01*
X66092Y-25161D01*
X66114Y-25164D01*
X66133D01*
X66147Y-25167D01*
X66175D01*
X66211Y-25164D01*
X66236Y-25158D01*
X66250Y-25153D01*
X66255Y-25150D01*
X66275Y-25136D01*
X66286Y-25122D01*
X66294Y-25111D01*
X66297Y-25106D01*
X66300Y-25092D01*
X66303Y-25072D01*
X66305Y-25028D01*
X66308Y-25009D01*
Y-24992D01*
Y-24981D01*
Y-24975D01*
Y-24156D01*
X66069D01*
Y-23973D01*
X66308D01*
Y-23487D01*
X66544Y-23629D01*
D02*
G37*
G36*
X65797D02*
Y-23973D01*
X65972D01*
Y-24156D01*
X65797D01*
Y-24961D01*
Y-25000D01*
Y-25034D01*
X65795Y-25064D01*
X65792Y-25095D01*
Y-25120D01*
X65789Y-25142D01*
X65783Y-25178D01*
X65778Y-25206D01*
X65775Y-25225D01*
X65770Y-25236D01*
Y-25239D01*
X65758Y-25264D01*
X65742Y-25283D01*
X65725Y-25303D01*
X65711Y-25317D01*
X65695Y-25331D01*
X65684Y-25339D01*
X65675Y-25344D01*
X65672Y-25347D01*
X65642Y-25361D01*
X65611Y-25369D01*
X65578Y-25378D01*
X65545Y-25381D01*
X65517Y-25383D01*
X65495Y-25386D01*
X65473D01*
X65411Y-25383D01*
X65381Y-25381D01*
X65353Y-25375D01*
X65328Y-25372D01*
X65309Y-25369D01*
X65298Y-25367D01*
X65292D01*
X65323Y-25158D01*
X65345Y-25161D01*
X65367Y-25164D01*
X65386D01*
X65400Y-25167D01*
X65428D01*
X65464Y-25164D01*
X65489Y-25158D01*
X65503Y-25153D01*
X65509Y-25150D01*
X65528Y-25136D01*
X65539Y-25122D01*
X65547Y-25111D01*
X65550Y-25106D01*
X65553Y-25092D01*
X65556Y-25072D01*
X65559Y-25028D01*
X65561Y-25009D01*
Y-24992D01*
Y-24981D01*
Y-24975D01*
Y-24156D01*
X65323D01*
Y-23973D01*
X65561D01*
Y-23487D01*
X65797Y-23629D01*
D02*
G37*
G36*
X54720Y-23945D02*
X54770Y-23951D01*
X54817Y-23959D01*
X54862Y-23973D01*
X54903Y-23987D01*
X54942Y-24004D01*
X54978Y-24020D01*
X55009Y-24040D01*
X55039Y-24056D01*
X55064Y-24076D01*
X55087Y-24092D01*
X55103Y-24106D01*
X55117Y-24120D01*
X55128Y-24128D01*
X55134Y-24134D01*
X55137Y-24137D01*
X55167Y-24176D01*
X55195Y-24217D01*
X55220Y-24259D01*
X55242Y-24303D01*
X55259Y-24351D01*
X55273Y-24395D01*
X55295Y-24484D01*
X55303Y-24523D01*
X55309Y-24562D01*
X55312Y-24595D01*
X55314Y-24625D01*
X55317Y-24650D01*
Y-24667D01*
Y-24681D01*
Y-24684D01*
X55314Y-24745D01*
X55309Y-24803D01*
X55300Y-24859D01*
X55289Y-24909D01*
X55275Y-24956D01*
X55262Y-25000D01*
X55245Y-25039D01*
X55228Y-25075D01*
X55212Y-25106D01*
X55195Y-25133D01*
X55181Y-25156D01*
X55167Y-25175D01*
X55156Y-25192D01*
X55148Y-25203D01*
X55142Y-25208D01*
X55139Y-25211D01*
X55103Y-25245D01*
X55067Y-25272D01*
X55028Y-25297D01*
X54987Y-25319D01*
X54948Y-25336D01*
X54906Y-25353D01*
X54828Y-25375D01*
X54792Y-25381D01*
X54759Y-25386D01*
X54729Y-25392D01*
X54704Y-25394D01*
X54684Y-25397D01*
X54654D01*
X54568Y-25392D01*
X54490Y-25378D01*
X54420Y-25361D01*
X54393Y-25350D01*
X54365Y-25339D01*
X54340Y-25328D01*
X54318Y-25317D01*
X54301Y-25308D01*
X54284Y-25300D01*
X54273Y-25292D01*
X54265Y-25286D01*
X54259Y-25281D01*
X54257D01*
X54201Y-25231D01*
X54157Y-25178D01*
X54118Y-25122D01*
X54090Y-25070D01*
X54068Y-25022D01*
X54059Y-25000D01*
X54051Y-24984D01*
X54046Y-24967D01*
X54043Y-24956D01*
X54040Y-24950D01*
Y-24947D01*
X54284Y-24917D01*
X54307Y-24970D01*
X54332Y-25014D01*
X54357Y-25053D01*
X54379Y-25084D01*
X54398Y-25106D01*
X54415Y-25122D01*
X54429Y-25133D01*
X54431Y-25136D01*
X54468Y-25158D01*
X54504Y-25175D01*
X54543Y-25186D01*
X54576Y-25195D01*
X54606Y-25200D01*
X54631Y-25203D01*
X54654D01*
X54687Y-25200D01*
X54717Y-25197D01*
X54773Y-25183D01*
X54823Y-25164D01*
X54867Y-25142D01*
X54901Y-25122D01*
X54926Y-25103D01*
X54942Y-25089D01*
X54945Y-25084D01*
X54948D01*
X54987Y-25034D01*
X55017Y-24978D01*
X55039Y-24917D01*
X55056Y-24861D01*
X55064Y-24811D01*
X55070Y-24789D01*
X55073Y-24770D01*
Y-24753D01*
X55076Y-24742D01*
Y-24734D01*
Y-24731D01*
X54034D01*
X54032Y-24703D01*
Y-24684D01*
Y-24673D01*
Y-24670D01*
X54034Y-24606D01*
X54040Y-24548D01*
X54048Y-24492D01*
X54059Y-24439D01*
X54073Y-24392D01*
X54087Y-24348D01*
X54104Y-24309D01*
X54121Y-24273D01*
X54137Y-24240D01*
X54154Y-24212D01*
X54168Y-24190D01*
X54182Y-24170D01*
X54193Y-24153D01*
X54201Y-24142D01*
X54207Y-24137D01*
X54209Y-24134D01*
X54243Y-24101D01*
X54279Y-24070D01*
X54318Y-24045D01*
X54357Y-24023D01*
X54395Y-24004D01*
X54431Y-23990D01*
X54470Y-23976D01*
X54504Y-23967D01*
X54540Y-23959D01*
X54570Y-23954D01*
X54598Y-23948D01*
X54620Y-23945D01*
X54640Y-23942D01*
X54667D01*
X54720Y-23945D01*
D02*
G37*
G36*
X69848Y-25367D02*
X69115D01*
X69048Y-25364D01*
X68990Y-25361D01*
X68937Y-25356D01*
X68893Y-25350D01*
X68857Y-25344D01*
X68829Y-25342D01*
X68812Y-25336D01*
X68807D01*
X68760Y-25322D01*
X68721Y-25308D01*
X68685Y-25292D01*
X68654Y-25275D01*
X68629Y-25264D01*
X68610Y-25253D01*
X68599Y-25245D01*
X68596Y-25242D01*
X68565Y-25217D01*
X68537Y-25186D01*
X68515Y-25156D01*
X68493Y-25128D01*
X68476Y-25100D01*
X68465Y-25081D01*
X68457Y-25067D01*
X68454Y-25061D01*
X68435Y-25017D01*
X68421Y-24972D01*
X68410Y-24931D01*
X68404Y-24892D01*
X68399Y-24859D01*
X68396Y-24831D01*
Y-24814D01*
Y-24811D01*
Y-24809D01*
X68399Y-24748D01*
X68410Y-24692D01*
X68426Y-24645D01*
X68443Y-24600D01*
X68460Y-24567D01*
X68476Y-24542D01*
X68487Y-24525D01*
X68490Y-24520D01*
X68529Y-24476D01*
X68571Y-24439D01*
X68618Y-24409D01*
X68660Y-24384D01*
X68698Y-24364D01*
X68732Y-24353D01*
X68743Y-24348D01*
X68751Y-24345D01*
X68757Y-24342D01*
X68760D01*
X68712Y-24315D01*
X68671Y-24287D01*
X68637Y-24256D01*
X68610Y-24228D01*
X68587Y-24206D01*
X68571Y-24184D01*
X68562Y-24173D01*
X68560Y-24167D01*
X68537Y-24126D01*
X68521Y-24087D01*
X68507Y-24048D01*
X68499Y-24012D01*
X68493Y-23981D01*
X68490Y-23956D01*
Y-23942D01*
Y-23937D01*
X68493Y-23890D01*
X68501Y-23843D01*
X68515Y-23801D01*
X68529Y-23762D01*
X68543Y-23729D01*
X68557Y-23707D01*
X68565Y-23690D01*
X68568Y-23684D01*
X68599Y-23643D01*
X68632Y-23604D01*
X68668Y-23573D01*
X68701Y-23548D01*
X68729Y-23529D01*
X68754Y-23515D01*
X68771Y-23507D01*
X68773Y-23504D01*
X68776D01*
X68829Y-23484D01*
X68887Y-23471D01*
X68946Y-23459D01*
X69001Y-23454D01*
X69051Y-23448D01*
X69073D01*
X69093Y-23446D01*
X69848D01*
Y-25367D01*
D02*
G37*
G36*
X57333D02*
X57097D01*
Y-23446D01*
X57333D01*
Y-25367D01*
D02*
G37*
G36*
X53263Y-23945D02*
X53290Y-23951D01*
X53318Y-23959D01*
X53340Y-23967D01*
X53357Y-23976D01*
X53374Y-23984D01*
X53382Y-23990D01*
X53385Y-23992D01*
X53410Y-24015D01*
X53435Y-24042D01*
X53460Y-24076D01*
X53482Y-24106D01*
X53504Y-24137D01*
X53518Y-24162D01*
X53529Y-24181D01*
X53532Y-24184D01*
Y-23973D01*
X53746D01*
Y-25367D01*
X53510D01*
Y-24639D01*
X53507Y-24584D01*
X53504Y-24534D01*
X53499Y-24487D01*
X53490Y-24445D01*
X53482Y-24412D01*
X53476Y-24387D01*
X53474Y-24370D01*
X53471Y-24364D01*
X53460Y-24334D01*
X53446Y-24309D01*
X53432Y-24287D01*
X53418Y-24267D01*
X53404Y-24253D01*
X53396Y-24242D01*
X53388Y-24237D01*
X53385Y-24234D01*
X53363Y-24217D01*
X53338Y-24206D01*
X53313Y-24198D01*
X53293Y-24192D01*
X53274Y-24190D01*
X53260Y-24187D01*
X53246D01*
X53215Y-24190D01*
X53185Y-24195D01*
X53154Y-24203D01*
X53129Y-24212D01*
X53107Y-24220D01*
X53091Y-24228D01*
X53079Y-24234D01*
X53077Y-24237D01*
X52991Y-24020D01*
X53038Y-23995D01*
X53082Y-23976D01*
X53121Y-23962D01*
X53157Y-23951D01*
X53188Y-23945D01*
X53213Y-23942D01*
X53232D01*
X53263Y-23945D01*
D02*
G37*
G36*
X67560D02*
X67605Y-23948D01*
X67691Y-23967D01*
X67766Y-23992D01*
X67799Y-24006D01*
X67830Y-24020D01*
X67857Y-24034D01*
X67880Y-24048D01*
X67902Y-24062D01*
X67918Y-24073D01*
X67932Y-24084D01*
X67943Y-24092D01*
X67949Y-24095D01*
X67952Y-24098D01*
X67991Y-24134D01*
X68021Y-24176D01*
X68052Y-24220D01*
X68074Y-24265D01*
X68096Y-24312D01*
X68113Y-24362D01*
X68127Y-24409D01*
X68138Y-24453D01*
X68149Y-24498D01*
X68154Y-24537D01*
X68160Y-24575D01*
X68163Y-24606D01*
Y-24634D01*
X68165Y-24653D01*
Y-24664D01*
Y-24670D01*
X68163Y-24734D01*
X68157Y-24795D01*
X68149Y-24850D01*
X68138Y-24903D01*
X68124Y-24950D01*
X68110Y-24995D01*
X68093Y-25036D01*
X68077Y-25072D01*
X68060Y-25106D01*
X68043Y-25133D01*
X68029Y-25156D01*
X68016Y-25175D01*
X68004Y-25192D01*
X67996Y-25203D01*
X67991Y-25208D01*
X67988Y-25211D01*
X67952Y-25245D01*
X67916Y-25272D01*
X67877Y-25297D01*
X67838Y-25319D01*
X67799Y-25336D01*
X67757Y-25353D01*
X67682Y-25375D01*
X67649Y-25381D01*
X67616Y-25386D01*
X67588Y-25392D01*
X67563Y-25394D01*
X67541Y-25397D01*
X67513D01*
X67446Y-25394D01*
X67385Y-25383D01*
X67327Y-25369D01*
X67280Y-25356D01*
X67238Y-25339D01*
X67222Y-25333D01*
X67208Y-25328D01*
X67194Y-25322D01*
X67185Y-25317D01*
X67183Y-25314D01*
X67180D01*
X67124Y-25278D01*
X67077Y-25239D01*
X67036Y-25200D01*
X67002Y-25161D01*
X66977Y-25128D01*
X66958Y-25100D01*
X66952Y-25089D01*
X66947Y-25081D01*
X66944Y-25078D01*
Y-25075D01*
X66916Y-25011D01*
X66897Y-24942D01*
X66880Y-24873D01*
X66872Y-24803D01*
X66866Y-24773D01*
Y-24745D01*
X66863Y-24717D01*
X66861Y-24695D01*
Y-24675D01*
Y-24662D01*
Y-24653D01*
Y-24650D01*
X66863Y-24589D01*
X66869Y-24534D01*
X66877Y-24481D01*
X66888Y-24431D01*
X66902Y-24384D01*
X66919Y-24342D01*
X66936Y-24301D01*
X66952Y-24267D01*
X66969Y-24237D01*
X66986Y-24209D01*
X67002Y-24184D01*
X67016Y-24165D01*
X67027Y-24151D01*
X67036Y-24140D01*
X67041Y-24134D01*
X67044Y-24131D01*
X67080Y-24098D01*
X67116Y-24070D01*
X67155Y-24042D01*
X67194Y-24023D01*
X67233Y-24004D01*
X67271Y-23990D01*
X67346Y-23965D01*
X67383Y-23959D01*
X67413Y-23954D01*
X67441Y-23948D01*
X67466Y-23945D01*
X67485Y-23942D01*
X67513D01*
X67560Y-23945D01*
D02*
G37*
G36*
X64573D02*
X64617Y-23948D01*
X64703Y-23967D01*
X64778Y-23992D01*
X64812Y-24006D01*
X64842Y-24020D01*
X64870Y-24034D01*
X64892Y-24048D01*
X64914Y-24062D01*
X64931Y-24073D01*
X64945Y-24084D01*
X64956Y-24092D01*
X64962Y-24095D01*
X64964Y-24098D01*
X65003Y-24134D01*
X65034Y-24176D01*
X65064Y-24220D01*
X65087Y-24265D01*
X65109Y-24312D01*
X65125Y-24362D01*
X65139Y-24409D01*
X65150Y-24453D01*
X65162Y-24498D01*
X65167Y-24537D01*
X65173Y-24575D01*
X65175Y-24606D01*
Y-24634D01*
X65178Y-24653D01*
Y-24664D01*
Y-24670D01*
X65175Y-24734D01*
X65170Y-24795D01*
X65162Y-24850D01*
X65150Y-24903D01*
X65137Y-24950D01*
X65123Y-24995D01*
X65106Y-25036D01*
X65089Y-25072D01*
X65073Y-25106D01*
X65056Y-25133D01*
X65042Y-25156D01*
X65028Y-25175D01*
X65017Y-25192D01*
X65009Y-25203D01*
X65003Y-25208D01*
X65001Y-25211D01*
X64964Y-25245D01*
X64928Y-25272D01*
X64890Y-25297D01*
X64851Y-25319D01*
X64812Y-25336D01*
X64770Y-25353D01*
X64695Y-25375D01*
X64662Y-25381D01*
X64629Y-25386D01*
X64601Y-25392D01*
X64576Y-25394D01*
X64554Y-25397D01*
X64526D01*
X64459Y-25394D01*
X64398Y-25383D01*
X64340Y-25369D01*
X64293Y-25356D01*
X64251Y-25339D01*
X64234Y-25333D01*
X64220Y-25328D01*
X64207Y-25322D01*
X64198Y-25317D01*
X64195Y-25314D01*
X64193D01*
X64137Y-25278D01*
X64090Y-25239D01*
X64048Y-25200D01*
X64015Y-25161D01*
X63990Y-25128D01*
X63971Y-25100D01*
X63965Y-25089D01*
X63959Y-25081D01*
X63957Y-25078D01*
Y-25075D01*
X63929Y-25011D01*
X63910Y-24942D01*
X63893Y-24873D01*
X63885Y-24803D01*
X63879Y-24773D01*
Y-24745D01*
X63876Y-24717D01*
X63873Y-24695D01*
Y-24675D01*
Y-24662D01*
Y-24653D01*
Y-24650D01*
X63876Y-24589D01*
X63882Y-24534D01*
X63890Y-24481D01*
X63901Y-24431D01*
X63915Y-24384D01*
X63932Y-24342D01*
X63948Y-24301D01*
X63965Y-24267D01*
X63982Y-24237D01*
X63998Y-24209D01*
X64015Y-24184D01*
X64029Y-24165D01*
X64040Y-24151D01*
X64048Y-24140D01*
X64054Y-24134D01*
X64057Y-24131D01*
X64093Y-24098D01*
X64129Y-24070D01*
X64168Y-24042D01*
X64207Y-24023D01*
X64245Y-24004D01*
X64284Y-23990D01*
X64359Y-23965D01*
X64395Y-23959D01*
X64426Y-23954D01*
X64454Y-23948D01*
X64479Y-23945D01*
X64498Y-23942D01*
X64526D01*
X64573Y-23945D01*
D02*
G37*
G36*
X58304D02*
X58349Y-23948D01*
X58435Y-23967D01*
X58510Y-23992D01*
X58543Y-24006D01*
X58574Y-24020D01*
X58601Y-24034D01*
X58624Y-24048D01*
X58646Y-24062D01*
X58662Y-24073D01*
X58676Y-24084D01*
X58687Y-24092D01*
X58693Y-24095D01*
X58696Y-24098D01*
X58735Y-24134D01*
X58765Y-24176D01*
X58796Y-24220D01*
X58818Y-24265D01*
X58840Y-24312D01*
X58857Y-24362D01*
X58871Y-24409D01*
X58882Y-24453D01*
X58893Y-24498D01*
X58898Y-24537D01*
X58904Y-24575D01*
X58907Y-24606D01*
Y-24634D01*
X58910Y-24653D01*
Y-24664D01*
Y-24670D01*
X58907Y-24734D01*
X58901Y-24795D01*
X58893Y-24850D01*
X58882Y-24903D01*
X58868Y-24950D01*
X58854Y-24995D01*
X58837Y-25036D01*
X58821Y-25072D01*
X58804Y-25106D01*
X58787Y-25133D01*
X58773Y-25156D01*
X58760Y-25175D01*
X58749Y-25192D01*
X58740Y-25203D01*
X58735Y-25208D01*
X58732Y-25211D01*
X58696Y-25245D01*
X58660Y-25272D01*
X58621Y-25297D01*
X58582Y-25319D01*
X58543Y-25336D01*
X58501Y-25353D01*
X58426Y-25375D01*
X58393Y-25381D01*
X58360Y-25386D01*
X58332Y-25392D01*
X58307Y-25394D01*
X58285Y-25397D01*
X58257D01*
X58190Y-25394D01*
X58129Y-25383D01*
X58071Y-25369D01*
X58024Y-25356D01*
X57982Y-25339D01*
X57966Y-25333D01*
X57952Y-25328D01*
X57938Y-25322D01*
X57930Y-25317D01*
X57927Y-25314D01*
X57924D01*
X57868Y-25278D01*
X57821Y-25239D01*
X57780Y-25200D01*
X57746Y-25161D01*
X57721Y-25128D01*
X57702Y-25100D01*
X57696Y-25089D01*
X57691Y-25081D01*
X57688Y-25078D01*
Y-25075D01*
X57660Y-25011D01*
X57641Y-24942D01*
X57624Y-24873D01*
X57616Y-24803D01*
X57610Y-24773D01*
Y-24745D01*
X57607Y-24717D01*
X57605Y-24695D01*
Y-24675D01*
Y-24662D01*
Y-24653D01*
Y-24650D01*
X57607Y-24589D01*
X57613Y-24534D01*
X57621Y-24481D01*
X57632Y-24431D01*
X57646Y-24384D01*
X57663Y-24342D01*
X57680Y-24301D01*
X57696Y-24267D01*
X57713Y-24237D01*
X57730Y-24209D01*
X57746Y-24184D01*
X57760Y-24165D01*
X57771Y-24151D01*
X57780Y-24140D01*
X57785Y-24134D01*
X57788Y-24131D01*
X57824Y-24098D01*
X57860Y-24070D01*
X57899Y-24042D01*
X57938Y-24023D01*
X57977Y-24004D01*
X58016Y-23990D01*
X58091Y-23965D01*
X58127Y-23959D01*
X58157Y-23954D01*
X58185Y-23948D01*
X58210Y-23945D01*
X58229Y-23942D01*
X58257D01*
X58304Y-23945D01*
D02*
G37*
G36*
X55847Y-24134D02*
X55872Y-24104D01*
X55900Y-24079D01*
X55925Y-24054D01*
X55953Y-24034D01*
X55975Y-24020D01*
X55992Y-24006D01*
X56003Y-24001D01*
X56008Y-23998D01*
X56044Y-23979D01*
X56083Y-23965D01*
X56122Y-23956D01*
X56158Y-23948D01*
X56189Y-23945D01*
X56211Y-23942D01*
X56233D01*
X56294Y-23945D01*
X56353Y-23956D01*
X56405Y-23970D01*
X56450Y-23987D01*
X56489Y-24006D01*
X56516Y-24020D01*
X56528Y-24026D01*
X56536Y-24031D01*
X56539Y-24034D01*
X56541D01*
X56591Y-24070D01*
X56633Y-24115D01*
X56669Y-24156D01*
X56697Y-24198D01*
X56719Y-24237D01*
X56736Y-24267D01*
X56741Y-24278D01*
X56747Y-24287D01*
X56750Y-24292D01*
Y-24295D01*
X56772Y-24359D01*
X56789Y-24426D01*
X56802Y-24489D01*
X56811Y-24548D01*
X56816Y-24598D01*
Y-24620D01*
X56819Y-24637D01*
Y-24653D01*
Y-24664D01*
Y-24670D01*
Y-24673D01*
X56816Y-24750D01*
X56808Y-24823D01*
X56794Y-24886D01*
X56780Y-24942D01*
X56775Y-24967D01*
X56769Y-24986D01*
X56761Y-25006D01*
X56755Y-25022D01*
X56750Y-25034D01*
X56747Y-25042D01*
X56744Y-25047D01*
Y-25050D01*
X56714Y-25108D01*
X56677Y-25158D01*
X56641Y-25203D01*
X56605Y-25239D01*
X56575Y-25267D01*
X56550Y-25289D01*
X56533Y-25300D01*
X56530Y-25306D01*
X56528D01*
X56475Y-25336D01*
X56422Y-25358D01*
X56369Y-25375D01*
X56322Y-25386D01*
X56283Y-25392D01*
X56250Y-25394D01*
X56239Y-25397D01*
X56222D01*
X56175Y-25394D01*
X56131Y-25389D01*
X56089Y-25378D01*
X56053Y-25364D01*
X56017Y-25350D01*
X55983Y-25333D01*
X55956Y-25314D01*
X55931Y-25295D01*
X55906Y-25275D01*
X55886Y-25256D01*
X55870Y-25239D01*
X55856Y-25225D01*
X55845Y-25211D01*
X55836Y-25200D01*
X55833Y-25195D01*
X55831Y-25192D01*
Y-25367D01*
X55611D01*
Y-23446D01*
X55847D01*
Y-24134D01*
D02*
G37*
G36*
X47993Y-23948D02*
X48027Y-23951D01*
X48057Y-23956D01*
X48082Y-23962D01*
X48102Y-23967D01*
X48113Y-23970D01*
X48118Y-23973D01*
X48152Y-23984D01*
X48182Y-23995D01*
X48207Y-24006D01*
X48229Y-24017D01*
X48246Y-24026D01*
X48257Y-24034D01*
X48265Y-24037D01*
X48268Y-24040D01*
X48296Y-24059D01*
X48318Y-24081D01*
X48338Y-24106D01*
X48354Y-24126D01*
X48368Y-24145D01*
X48377Y-24159D01*
X48382Y-24170D01*
X48385Y-24173D01*
X48399Y-24203D01*
X48410Y-24231D01*
X48415Y-24262D01*
X48421Y-24287D01*
X48424Y-24312D01*
X48427Y-24328D01*
Y-24339D01*
Y-24345D01*
X48424Y-24384D01*
X48418Y-24417D01*
X48410Y-24451D01*
X48402Y-24478D01*
X48393Y-24500D01*
X48385Y-24520D01*
X48379Y-24531D01*
X48377Y-24534D01*
X48354Y-24564D01*
X48329Y-24589D01*
X48304Y-24612D01*
X48279Y-24631D01*
X48257Y-24645D01*
X48241Y-24656D01*
X48229Y-24662D01*
X48224Y-24664D01*
X48204Y-24673D01*
X48179Y-24684D01*
X48124Y-24703D01*
X48066Y-24720D01*
X48005Y-24739D01*
X47952Y-24753D01*
X47927Y-24761D01*
X47905Y-24767D01*
X47888Y-24773D01*
X47874Y-24775D01*
X47866Y-24778D01*
X47863D01*
X47827Y-24786D01*
X47796Y-24795D01*
X47769Y-24803D01*
X47744Y-24811D01*
X47721Y-24817D01*
X47702Y-24825D01*
X47669Y-24836D01*
X47646Y-24845D01*
X47633Y-24853D01*
X47624Y-24856D01*
X47621Y-24859D01*
X47596Y-24875D01*
X47580Y-24897D01*
X47566Y-24917D01*
X47558Y-24936D01*
X47552Y-24956D01*
X47549Y-24970D01*
Y-24981D01*
Y-24984D01*
X47552Y-25017D01*
X47560Y-25045D01*
X47574Y-25072D01*
X47588Y-25095D01*
X47605Y-25114D01*
X47616Y-25128D01*
X47627Y-25136D01*
X47630Y-25139D01*
X47663Y-25161D01*
X47699Y-25175D01*
X47741Y-25186D01*
X47780Y-25195D01*
X47816Y-25200D01*
X47844Y-25203D01*
X47871D01*
X47930Y-25200D01*
X47980Y-25192D01*
X48021Y-25181D01*
X48057Y-25167D01*
X48085Y-25153D01*
X48107Y-25142D01*
X48118Y-25133D01*
X48124Y-25131D01*
X48154Y-25100D01*
X48179Y-25064D01*
X48196Y-25028D01*
X48210Y-24995D01*
X48221Y-24964D01*
X48227Y-24936D01*
X48232Y-24920D01*
Y-24917D01*
Y-24914D01*
X48465Y-24950D01*
X48446Y-25028D01*
X48421Y-25097D01*
X48390Y-25153D01*
X48360Y-25200D01*
X48332Y-25239D01*
X48307Y-25264D01*
X48290Y-25281D01*
X48288Y-25283D01*
X48285Y-25286D01*
X48257Y-25306D01*
X48227Y-25322D01*
X48160Y-25350D01*
X48091Y-25369D01*
X48024Y-25383D01*
X47993Y-25389D01*
X47966Y-25392D01*
X47938Y-25394D01*
X47916D01*
X47896Y-25397D01*
X47871D01*
X47810Y-25394D01*
X47757Y-25389D01*
X47707Y-25381D01*
X47663Y-25369D01*
X47627Y-25358D01*
X47599Y-25350D01*
X47583Y-25344D01*
X47580Y-25342D01*
X47577D01*
X47530Y-25317D01*
X47491Y-25292D01*
X47458Y-25264D01*
X47427Y-25239D01*
X47405Y-25217D01*
X47391Y-25197D01*
X47380Y-25186D01*
X47377Y-25181D01*
X47355Y-25142D01*
X47338Y-25100D01*
X47324Y-25064D01*
X47316Y-25031D01*
X47310Y-25000D01*
X47308Y-24978D01*
Y-24964D01*
Y-24959D01*
X47310Y-24914D01*
X47316Y-24875D01*
X47327Y-24842D01*
X47335Y-24811D01*
X47347Y-24786D01*
X47358Y-24770D01*
X47363Y-24759D01*
X47366Y-24756D01*
X47388Y-24728D01*
X47413Y-24703D01*
X47438Y-24681D01*
X47463Y-24664D01*
X47488Y-24650D01*
X47505Y-24642D01*
X47516Y-24637D01*
X47521Y-24634D01*
X47541Y-24625D01*
X47563Y-24617D01*
X47616Y-24598D01*
X47674Y-24578D01*
X47732Y-24562D01*
X47785Y-24545D01*
X47810Y-24539D01*
X47830Y-24534D01*
X47846Y-24528D01*
X47860Y-24525D01*
X47868Y-24523D01*
X47871D01*
X47902Y-24514D01*
X47930Y-24506D01*
X47955Y-24500D01*
X47977Y-24492D01*
X48013Y-24484D01*
X48041Y-24476D01*
X48060Y-24467D01*
X48071Y-24464D01*
X48077Y-24462D01*
X48079D01*
X48102Y-24451D01*
X48121Y-24442D01*
X48138Y-24431D01*
X48149Y-24423D01*
X48160Y-24414D01*
X48166Y-24406D01*
X48168Y-24403D01*
X48171Y-24401D01*
X48188Y-24373D01*
X48196Y-24345D01*
Y-24334D01*
X48199Y-24326D01*
Y-24320D01*
Y-24317D01*
X48196Y-24292D01*
X48188Y-24267D01*
X48177Y-24245D01*
X48163Y-24228D01*
X48152Y-24212D01*
X48141Y-24201D01*
X48132Y-24195D01*
X48129Y-24192D01*
X48099Y-24173D01*
X48063Y-24159D01*
X48024Y-24151D01*
X47988Y-24142D01*
X47952Y-24140D01*
X47924Y-24137D01*
X47896D01*
X47849Y-24140D01*
X47805Y-24145D01*
X47769Y-24156D01*
X47741Y-24167D01*
X47716Y-24178D01*
X47699Y-24190D01*
X47688Y-24195D01*
X47685Y-24198D01*
X47658Y-24223D01*
X47638Y-24251D01*
X47621Y-24278D01*
X47608Y-24303D01*
X47599Y-24328D01*
X47594Y-24348D01*
X47591Y-24359D01*
Y-24364D01*
X47360Y-24334D01*
X47372Y-24287D01*
X47383Y-24245D01*
X47397Y-24209D01*
X47410Y-24176D01*
X47424Y-24153D01*
X47435Y-24134D01*
X47441Y-24123D01*
X47444Y-24120D01*
X47469Y-24092D01*
X47496Y-24067D01*
X47527Y-24045D01*
X47558Y-24026D01*
X47585Y-24012D01*
X47608Y-24001D01*
X47621Y-23995D01*
X47624Y-23992D01*
X47627D01*
X47674Y-23976D01*
X47724Y-23965D01*
X47771Y-23954D01*
X47816Y-23948D01*
X47857Y-23945D01*
X47888Y-23942D01*
X47955D01*
X47993Y-23948D01*
D02*
G37*
G36*
X59992Y-23415D02*
X60056Y-23423D01*
X60117Y-23434D01*
X60170Y-23446D01*
X60212Y-23457D01*
X60231Y-23462D01*
X60245Y-23468D01*
X60256Y-23473D01*
X60264Y-23476D01*
X60270Y-23479D01*
X60273D01*
X60328Y-23507D01*
X60378Y-23537D01*
X60420Y-23570D01*
X60453Y-23601D01*
X60478Y-23629D01*
X60498Y-23651D01*
X60511Y-23668D01*
X60514Y-23670D01*
Y-23673D01*
X60542Y-23720D01*
X60561Y-23768D01*
X60575Y-23815D01*
X60584Y-23856D01*
X60589Y-23893D01*
X60595Y-23920D01*
Y-23931D01*
Y-23940D01*
Y-23942D01*
Y-23945D01*
X60592Y-23992D01*
X60584Y-24037D01*
X60572Y-24079D01*
X60561Y-24115D01*
X60550Y-24142D01*
X60539Y-24165D01*
X60531Y-24178D01*
X60528Y-24184D01*
X60500Y-24223D01*
X60467Y-24259D01*
X60434Y-24290D01*
X60400Y-24315D01*
X60373Y-24337D01*
X60348Y-24351D01*
X60331Y-24362D01*
X60328Y-24364D01*
X60325D01*
X60303Y-24376D01*
X60278Y-24387D01*
X60223Y-24406D01*
X60159Y-24426D01*
X60098Y-24445D01*
X60042Y-24462D01*
X60017Y-24467D01*
X59995Y-24473D01*
X59978Y-24478D01*
X59964Y-24481D01*
X59956Y-24484D01*
X59953D01*
X59906Y-24495D01*
X59862Y-24506D01*
X59823Y-24517D01*
X59790Y-24525D01*
X59756Y-24534D01*
X59729Y-24542D01*
X59704Y-24548D01*
X59684Y-24556D01*
X59665Y-24562D01*
X59651Y-24564D01*
X59629Y-24573D01*
X59615Y-24575D01*
X59612Y-24578D01*
X59570Y-24595D01*
X59534Y-24614D01*
X59504Y-24634D01*
X59481Y-24650D01*
X59462Y-24667D01*
X59451Y-24678D01*
X59443Y-24687D01*
X59440Y-24689D01*
X59420Y-24714D01*
X59406Y-24742D01*
X59398Y-24770D01*
X59390Y-24792D01*
X59387Y-24814D01*
X59384Y-24831D01*
Y-24845D01*
Y-24848D01*
X59387Y-24881D01*
X59393Y-24911D01*
X59401Y-24939D01*
X59412Y-24961D01*
X59423Y-24984D01*
X59431Y-24997D01*
X59437Y-25009D01*
X59440Y-25011D01*
X59462Y-25039D01*
X59490Y-25061D01*
X59518Y-25081D01*
X59543Y-25100D01*
X59567Y-25111D01*
X59587Y-25122D01*
X59601Y-25128D01*
X59606Y-25131D01*
X59648Y-25145D01*
X59692Y-25156D01*
X59737Y-25161D01*
X59776Y-25167D01*
X59809Y-25170D01*
X59837Y-25172D01*
X59862D01*
X59923Y-25170D01*
X59978Y-25164D01*
X60028Y-25156D01*
X60073Y-25145D01*
X60109Y-25133D01*
X60137Y-25125D01*
X60145Y-25122D01*
X60153Y-25120D01*
X60156Y-25117D01*
X60159D01*
X60203Y-25095D01*
X60245Y-25070D01*
X60275Y-25045D01*
X60303Y-25020D01*
X60325Y-25000D01*
X60339Y-24981D01*
X60348Y-24970D01*
X60350Y-24967D01*
X60370Y-24931D01*
X60389Y-24892D01*
X60400Y-24850D01*
X60411Y-24814D01*
X60420Y-24778D01*
X60425Y-24753D01*
Y-24742D01*
X60428Y-24734D01*
Y-24731D01*
Y-24728D01*
X60667Y-24750D01*
X60661Y-24820D01*
X60650Y-24886D01*
X60634Y-24945D01*
X60614Y-24997D01*
X60595Y-25039D01*
X60586Y-25056D01*
X60581Y-25070D01*
X60572Y-25081D01*
X60570Y-25089D01*
X60564Y-25095D01*
Y-25097D01*
X60523Y-25150D01*
X60478Y-25197D01*
X60431Y-25236D01*
X60386Y-25270D01*
X60348Y-25295D01*
X60314Y-25311D01*
X60303Y-25317D01*
X60295Y-25322D01*
X60289Y-25325D01*
X60287D01*
X60217Y-25350D01*
X60145Y-25369D01*
X60073Y-25381D01*
X60003Y-25392D01*
X59970Y-25394D01*
X59942Y-25397D01*
X59917D01*
X59895Y-25400D01*
X59851D01*
X59776Y-25397D01*
X59706Y-25389D01*
X59642Y-25375D01*
X59590Y-25361D01*
X59545Y-25350D01*
X59526Y-25342D01*
X59509Y-25336D01*
X59498Y-25331D01*
X59490Y-25328D01*
X59484Y-25325D01*
X59481D01*
X59423Y-25295D01*
X59373Y-25261D01*
X59329Y-25225D01*
X59293Y-25192D01*
X59265Y-25164D01*
X59245Y-25139D01*
X59232Y-25122D01*
X59229Y-25120D01*
Y-25117D01*
X59198Y-25064D01*
X59176Y-25014D01*
X59162Y-24967D01*
X59151Y-24922D01*
X59146Y-24884D01*
X59140Y-24853D01*
Y-24842D01*
Y-24834D01*
Y-24831D01*
Y-24828D01*
X59143Y-24773D01*
X59151Y-24720D01*
X59165Y-24673D01*
X59179Y-24634D01*
X59195Y-24600D01*
X59207Y-24575D01*
X59218Y-24562D01*
X59220Y-24556D01*
X59254Y-24514D01*
X59293Y-24476D01*
X59334Y-24442D01*
X59376Y-24412D01*
X59412Y-24389D01*
X59443Y-24373D01*
X59454Y-24367D01*
X59462Y-24362D01*
X59468Y-24359D01*
X59470D01*
X59493Y-24348D01*
X59520Y-24339D01*
X59551Y-24328D01*
X59584Y-24317D01*
X59654Y-24298D01*
X59726Y-24278D01*
X59759Y-24270D01*
X59790Y-24262D01*
X59820Y-24253D01*
X59845Y-24248D01*
X59865Y-24242D01*
X59881Y-24240D01*
X59892Y-24237D01*
X59895D01*
X59951Y-24223D01*
X60001Y-24212D01*
X60045Y-24198D01*
X60084Y-24187D01*
X60120Y-24173D01*
X60151Y-24162D01*
X60178Y-24151D01*
X60203Y-24142D01*
X60223Y-24131D01*
X60239Y-24123D01*
X60250Y-24117D01*
X60262Y-24109D01*
X60275Y-24101D01*
X60278Y-24098D01*
X60303Y-24070D01*
X60320Y-24042D01*
X60334Y-24015D01*
X60342Y-23987D01*
X60348Y-23965D01*
X60350Y-23945D01*
Y-23934D01*
Y-23929D01*
X60345Y-23884D01*
X60334Y-23845D01*
X60317Y-23812D01*
X60298Y-23781D01*
X60281Y-23759D01*
X60264Y-23740D01*
X60253Y-23729D01*
X60248Y-23726D01*
X60225Y-23712D01*
X60203Y-23698D01*
X60151Y-23676D01*
X60095Y-23662D01*
X60039Y-23651D01*
X59989Y-23645D01*
X59967Y-23643D01*
X59951Y-23640D01*
X59912D01*
X59834Y-23643D01*
X59765Y-23654D01*
X59709Y-23670D01*
X59662Y-23687D01*
X59626Y-23704D01*
X59598Y-23720D01*
X59584Y-23731D01*
X59579Y-23734D01*
X59540Y-23773D01*
X59509Y-23815D01*
X59484Y-23859D01*
X59468Y-23904D01*
X59456Y-23945D01*
X59448Y-23976D01*
X59445Y-23990D01*
X59443Y-23998D01*
Y-24004D01*
Y-24006D01*
X59198Y-23987D01*
X59204Y-23926D01*
X59218Y-23870D01*
X59232Y-23818D01*
X59251Y-23773D01*
X59268Y-23737D01*
X59282Y-23709D01*
X59287Y-23701D01*
X59293Y-23693D01*
X59295Y-23690D01*
Y-23687D01*
X59332Y-23640D01*
X59370Y-23598D01*
X59412Y-23562D01*
X59454Y-23534D01*
X59490Y-23509D01*
X59518Y-23496D01*
X59529Y-23490D01*
X59537Y-23484D01*
X59543Y-23482D01*
X59545D01*
X59606Y-23459D01*
X59673Y-23443D01*
X59734Y-23429D01*
X59792Y-23421D01*
X59845Y-23415D01*
X59865D01*
X59884Y-23412D01*
X59920D01*
X59992Y-23415D01*
D02*
G37*
%LPC*%
G36*
X23424Y-23876D02*
X22969D01*
X22908Y-23882D01*
X22860Y-23885D01*
X22819Y-23890D01*
X22788Y-23896D01*
X22769Y-23899D01*
X22755Y-23904D01*
X22752D01*
X22722Y-23915D01*
X22694Y-23932D01*
X22672Y-23949D01*
X22652Y-23965D01*
X22638Y-23979D01*
X22627Y-23993D01*
X22622Y-24001D01*
X22619Y-24004D01*
X22602Y-24032D01*
X22591Y-24060D01*
X22583Y-24087D01*
X22577Y-24115D01*
X22575Y-24137D01*
X22572Y-24154D01*
Y-24165D01*
Y-24171D01*
X22575Y-24207D01*
X22580Y-24240D01*
X22588Y-24268D01*
X22597Y-24290D01*
X22605Y-24309D01*
X22613Y-24326D01*
X22619Y-24334D01*
X22622Y-24337D01*
X22641Y-24359D01*
X22666Y-24382D01*
X22691Y-24398D01*
X22713Y-24409D01*
X22736Y-24421D01*
X22752Y-24429D01*
X22763Y-24432D01*
X22769Y-24434D01*
X22799Y-24440D01*
X22838Y-24446D01*
X22877Y-24448D01*
X22916Y-24451D01*
X22952Y-24454D01*
X23424D01*
Y-23876D01*
D02*
G37*
G36*
Y-24681D02*
X22919D01*
X22860Y-24687D01*
X22813Y-24693D01*
X22774Y-24698D01*
X22744Y-24704D01*
X22719Y-24709D01*
X22708Y-24712D01*
X22702Y-24715D01*
X22666Y-24729D01*
X22636Y-24745D01*
X22608Y-24765D01*
X22586Y-24784D01*
X22569Y-24801D01*
X22558Y-24815D01*
X22550Y-24826D01*
X22547Y-24829D01*
X22527Y-24859D01*
X22513Y-24890D01*
X22502Y-24920D01*
X22497Y-24948D01*
X22491Y-24973D01*
X22488Y-24995D01*
Y-25006D01*
Y-25012D01*
X22491Y-25045D01*
X22494Y-25078D01*
X22500Y-25106D01*
X22508Y-25128D01*
X22516Y-25148D01*
X22522Y-25165D01*
X22525Y-25173D01*
X22527Y-25176D01*
X22544Y-25201D01*
X22558Y-25223D01*
X22577Y-25240D01*
X22591Y-25256D01*
X22605Y-25267D01*
X22616Y-25276D01*
X22625Y-25281D01*
X22627Y-25284D01*
X22674Y-25306D01*
X22722Y-25323D01*
X22741Y-25328D01*
X22758Y-25331D01*
X22769Y-25334D01*
X22772D01*
X22794Y-25337D01*
X22819Y-25339D01*
X22877Y-25342D01*
X23424D01*
Y-24681D01*
D02*
G37*
G36*
X48976Y-24667D02*
X48973D01*
X48976Y-24756D01*
X48979Y-24811D01*
X48982Y-24859D01*
X48987Y-24897D01*
X48996Y-24931D01*
X49004Y-24956D01*
X49010Y-24975D01*
X49012Y-24986D01*
X49015Y-24989D01*
X49037Y-25025D01*
X49060Y-25059D01*
X49087Y-25086D01*
X49112Y-25108D01*
X49134Y-25128D01*
X49154Y-25142D01*
X49165Y-25150D01*
X49171Y-25153D01*
X49212Y-25172D01*
X49254Y-25186D01*
X49293Y-25197D01*
X49332Y-25203D01*
X49362Y-25208D01*
X49390Y-25211D01*
X49412D01*
X49462Y-25208D01*
X49504Y-25203D01*
X49540Y-25192D01*
X49570Y-25181D01*
X49593Y-25170D01*
X49609Y-25158D01*
X49620Y-25153D01*
X49623Y-25150D01*
X49645Y-25125D01*
X49662Y-25097D01*
X49676Y-25072D01*
X49684Y-25047D01*
X49690Y-25025D01*
X49692Y-25009D01*
Y-24995D01*
Y-24992D01*
X49690Y-24970D01*
X49687Y-24947D01*
X49681Y-24931D01*
X49676Y-24914D01*
X49670Y-24900D01*
X49667Y-24889D01*
X49662Y-24884D01*
Y-24881D01*
X49634Y-24848D01*
X49601Y-24825D01*
X49590Y-24817D01*
X49579Y-24811D01*
X49570Y-24806D01*
X49568D01*
X49540Y-24795D01*
X49509Y-24786D01*
X49476Y-24778D01*
X49443Y-24773D01*
X49412Y-24767D01*
X49384Y-24761D01*
X49368Y-24759D01*
X49362D01*
X49315Y-24750D01*
X49270Y-24745D01*
X49232Y-24736D01*
X49193Y-24728D01*
X49157Y-24720D01*
X49126Y-24712D01*
X49096Y-24706D01*
X49071Y-24698D01*
X49048Y-24692D01*
X49029Y-24687D01*
X49012Y-24681D01*
X48998Y-24675D01*
X48987Y-24673D01*
X48979Y-24670D01*
X48976Y-24667D01*
D02*
G37*
G36*
X54681Y-24137D02*
X54665D01*
X54631Y-24140D01*
X54601Y-24142D01*
X54543Y-24159D01*
X54493Y-24181D01*
X54451Y-24206D01*
X54418Y-24231D01*
X54393Y-24253D01*
X54379Y-24270D01*
X54373Y-24273D01*
Y-24276D01*
X54348Y-24312D01*
X54326Y-24353D01*
X54312Y-24395D01*
X54298Y-24439D01*
X54290Y-24476D01*
X54284Y-24509D01*
Y-24520D01*
X54282Y-24528D01*
Y-24534D01*
Y-24537D01*
X55062D01*
X55053Y-24473D01*
X55037Y-24414D01*
X55017Y-24364D01*
X54995Y-24326D01*
X54976Y-24292D01*
X54956Y-24267D01*
X54945Y-24253D01*
X54940Y-24248D01*
X54895Y-24212D01*
X54851Y-24184D01*
X54804Y-24165D01*
X54759Y-24151D01*
X54723Y-24142D01*
X54692Y-24140D01*
X54681Y-24137D01*
D02*
G37*
G36*
X69592Y-23673D02*
X69137D01*
X69076Y-23679D01*
X69029Y-23682D01*
X68987Y-23687D01*
X68957Y-23693D01*
X68937Y-23695D01*
X68923Y-23701D01*
X68921D01*
X68890Y-23712D01*
X68862Y-23729D01*
X68840Y-23745D01*
X68821Y-23762D01*
X68807Y-23776D01*
X68796Y-23790D01*
X68790Y-23798D01*
X68787Y-23801D01*
X68771Y-23829D01*
X68760Y-23856D01*
X68751Y-23884D01*
X68746Y-23912D01*
X68743Y-23934D01*
X68740Y-23951D01*
Y-23962D01*
Y-23967D01*
X68743Y-24004D01*
X68748Y-24037D01*
X68757Y-24065D01*
X68765Y-24087D01*
X68773Y-24106D01*
X68782Y-24123D01*
X68787Y-24131D01*
X68790Y-24134D01*
X68810Y-24156D01*
X68835Y-24178D01*
X68859Y-24195D01*
X68882Y-24206D01*
X68904Y-24217D01*
X68921Y-24226D01*
X68932Y-24228D01*
X68937Y-24231D01*
X68968Y-24237D01*
X69007Y-24242D01*
X69046Y-24245D01*
X69084Y-24248D01*
X69120Y-24251D01*
X69592D01*
Y-23673D01*
D02*
G37*
G36*
Y-24478D02*
X69087D01*
X69029Y-24484D01*
X68982Y-24489D01*
X68943Y-24495D01*
X68912Y-24500D01*
X68887Y-24506D01*
X68876Y-24509D01*
X68871Y-24512D01*
X68835Y-24525D01*
X68804Y-24542D01*
X68776Y-24562D01*
X68754Y-24581D01*
X68737Y-24598D01*
X68726Y-24612D01*
X68718Y-24623D01*
X68715Y-24625D01*
X68696Y-24656D01*
X68682Y-24687D01*
X68671Y-24717D01*
X68665Y-24745D01*
X68660Y-24770D01*
X68657Y-24792D01*
Y-24803D01*
Y-24809D01*
X68660Y-24842D01*
X68662Y-24875D01*
X68668Y-24903D01*
X68676Y-24925D01*
X68685Y-24945D01*
X68690Y-24961D01*
X68693Y-24970D01*
X68696Y-24972D01*
X68712Y-24997D01*
X68726Y-25020D01*
X68746Y-25036D01*
X68760Y-25053D01*
X68773Y-25064D01*
X68785Y-25072D01*
X68793Y-25078D01*
X68796Y-25081D01*
X68843Y-25103D01*
X68890Y-25120D01*
X68909Y-25125D01*
X68926Y-25128D01*
X68937Y-25131D01*
X68940D01*
X68962Y-25133D01*
X68987Y-25136D01*
X69046Y-25139D01*
X69592D01*
Y-24478D01*
D02*
G37*
G36*
X67530Y-24137D02*
X67513D01*
X67480Y-24140D01*
X67449Y-24142D01*
X67394Y-24156D01*
X67344Y-24178D01*
X67302Y-24203D01*
X67269Y-24228D01*
X67244Y-24248D01*
X67227Y-24265D01*
X67222Y-24267D01*
Y-24270D01*
X67199Y-24295D01*
X67183Y-24326D01*
X67152Y-24387D01*
X67130Y-24453D01*
X67116Y-24514D01*
X67108Y-24573D01*
X67105Y-24598D01*
Y-24620D01*
X67102Y-24637D01*
Y-24650D01*
Y-24659D01*
Y-24662D01*
Y-24712D01*
X67108Y-24759D01*
X67113Y-24800D01*
X67122Y-24842D01*
X67130Y-24878D01*
X67141Y-24911D01*
X67149Y-24942D01*
X67160Y-24970D01*
X67172Y-24992D01*
X67183Y-25014D01*
X67194Y-25031D01*
X67202Y-25045D01*
X67210Y-25056D01*
X67216Y-25064D01*
X67219Y-25067D01*
X67222Y-25070D01*
X67244Y-25092D01*
X67269Y-25114D01*
X67316Y-25147D01*
X67366Y-25170D01*
X67410Y-25186D01*
X67452Y-25195D01*
X67482Y-25200D01*
X67496Y-25203D01*
X67513D01*
X67546Y-25200D01*
X67577Y-25197D01*
X67635Y-25183D01*
X67685Y-25161D01*
X67727Y-25136D01*
X67760Y-25114D01*
X67785Y-25092D01*
X67802Y-25078D01*
X67805Y-25072D01*
X67807D01*
X67827Y-25045D01*
X67846Y-25017D01*
X67874Y-24953D01*
X67896Y-24886D01*
X67910Y-24820D01*
X67918Y-24761D01*
X67921Y-24736D01*
Y-24714D01*
X67924Y-24695D01*
Y-24681D01*
Y-24673D01*
Y-24670D01*
X67921Y-24623D01*
X67918Y-24575D01*
X67913Y-24534D01*
X67904Y-24495D01*
X67896Y-24459D01*
X67888Y-24426D01*
X67877Y-24398D01*
X67866Y-24370D01*
X67855Y-24348D01*
X67843Y-24326D01*
X67835Y-24309D01*
X67827Y-24295D01*
X67818Y-24284D01*
X67813Y-24276D01*
X67807Y-24273D01*
Y-24270D01*
X67785Y-24248D01*
X67760Y-24226D01*
X67713Y-24192D01*
X67663Y-24170D01*
X67616Y-24153D01*
X67574Y-24142D01*
X67544Y-24140D01*
X67530Y-24137D01*
D02*
G37*
G36*
X64542D02*
X64526D01*
X64493Y-24140D01*
X64462Y-24142D01*
X64406Y-24156D01*
X64356Y-24178D01*
X64315Y-24203D01*
X64282Y-24228D01*
X64257Y-24248D01*
X64240Y-24265D01*
X64234Y-24267D01*
Y-24270D01*
X64212Y-24295D01*
X64195Y-24326D01*
X64165Y-24387D01*
X64143Y-24453D01*
X64129Y-24514D01*
X64120Y-24573D01*
X64118Y-24598D01*
Y-24620D01*
X64115Y-24637D01*
Y-24650D01*
Y-24659D01*
Y-24662D01*
Y-24712D01*
X64120Y-24759D01*
X64126Y-24800D01*
X64134Y-24842D01*
X64143Y-24878D01*
X64154Y-24911D01*
X64162Y-24942D01*
X64173Y-24970D01*
X64184Y-24992D01*
X64195Y-25014D01*
X64207Y-25031D01*
X64215Y-25045D01*
X64223Y-25056D01*
X64229Y-25064D01*
X64232Y-25067D01*
X64234Y-25070D01*
X64257Y-25092D01*
X64282Y-25114D01*
X64329Y-25147D01*
X64379Y-25170D01*
X64423Y-25186D01*
X64465Y-25195D01*
X64495Y-25200D01*
X64509Y-25203D01*
X64526D01*
X64559Y-25200D01*
X64590Y-25197D01*
X64648Y-25183D01*
X64698Y-25161D01*
X64740Y-25136D01*
X64773Y-25114D01*
X64798Y-25092D01*
X64815Y-25078D01*
X64817Y-25072D01*
X64820D01*
X64840Y-25045D01*
X64859Y-25017D01*
X64887Y-24953D01*
X64909Y-24886D01*
X64923Y-24820D01*
X64931Y-24761D01*
X64934Y-24736D01*
Y-24714D01*
X64937Y-24695D01*
Y-24681D01*
Y-24673D01*
Y-24670D01*
X64934Y-24623D01*
X64931Y-24575D01*
X64926Y-24534D01*
X64917Y-24495D01*
X64909Y-24459D01*
X64901Y-24426D01*
X64890Y-24398D01*
X64878Y-24370D01*
X64867Y-24348D01*
X64856Y-24326D01*
X64848Y-24309D01*
X64840Y-24295D01*
X64831Y-24284D01*
X64826Y-24276D01*
X64820Y-24273D01*
Y-24270D01*
X64798Y-24248D01*
X64773Y-24226D01*
X64726Y-24192D01*
X64676Y-24170D01*
X64629Y-24153D01*
X64587Y-24142D01*
X64556Y-24140D01*
X64542Y-24137D01*
D02*
G37*
G36*
X58274D02*
X58257D01*
X58224Y-24140D01*
X58193Y-24142D01*
X58138Y-24156D01*
X58088Y-24178D01*
X58046Y-24203D01*
X58013Y-24228D01*
X57988Y-24248D01*
X57971Y-24265D01*
X57966Y-24267D01*
Y-24270D01*
X57943Y-24295D01*
X57927Y-24326D01*
X57896Y-24387D01*
X57874Y-24453D01*
X57860Y-24514D01*
X57852Y-24573D01*
X57849Y-24598D01*
Y-24620D01*
X57846Y-24637D01*
Y-24650D01*
Y-24659D01*
Y-24662D01*
Y-24712D01*
X57852Y-24759D01*
X57857Y-24800D01*
X57866Y-24842D01*
X57874Y-24878D01*
X57885Y-24911D01*
X57893Y-24942D01*
X57905Y-24970D01*
X57916Y-24992D01*
X57927Y-25014D01*
X57938Y-25031D01*
X57946Y-25045D01*
X57955Y-25056D01*
X57960Y-25064D01*
X57963Y-25067D01*
X57966Y-25070D01*
X57988Y-25092D01*
X58013Y-25114D01*
X58060Y-25147D01*
X58110Y-25170D01*
X58154Y-25186D01*
X58196Y-25195D01*
X58227Y-25200D01*
X58240Y-25203D01*
X58257D01*
X58290Y-25200D01*
X58321Y-25197D01*
X58379Y-25183D01*
X58429Y-25161D01*
X58471Y-25136D01*
X58504Y-25114D01*
X58529Y-25092D01*
X58546Y-25078D01*
X58549Y-25072D01*
X58551D01*
X58571Y-25045D01*
X58590Y-25017D01*
X58618Y-24953D01*
X58640Y-24886D01*
X58654Y-24820D01*
X58662Y-24761D01*
X58665Y-24736D01*
Y-24714D01*
X58668Y-24695D01*
Y-24681D01*
Y-24673D01*
Y-24670D01*
X58665Y-24623D01*
X58662Y-24575D01*
X58657Y-24534D01*
X58649Y-24495D01*
X58640Y-24459D01*
X58632Y-24426D01*
X58621Y-24398D01*
X58610Y-24370D01*
X58599Y-24348D01*
X58587Y-24326D01*
X58579Y-24309D01*
X58571Y-24295D01*
X58562Y-24284D01*
X58557Y-24276D01*
X58551Y-24273D01*
Y-24270D01*
X58529Y-24248D01*
X58504Y-24226D01*
X58457Y-24192D01*
X58407Y-24170D01*
X58360Y-24153D01*
X58318Y-24142D01*
X58288Y-24140D01*
X58274Y-24137D01*
D02*
G37*
G36*
X56222D02*
X56208D01*
X56178Y-24140D01*
X56150Y-24142D01*
X56097Y-24159D01*
X56050Y-24178D01*
X56011Y-24203D01*
X55981Y-24228D01*
X55956Y-24251D01*
X55942Y-24267D01*
X55936Y-24270D01*
Y-24273D01*
X55917Y-24301D01*
X55900Y-24328D01*
X55872Y-24395D01*
X55853Y-24464D01*
X55839Y-24531D01*
X55833Y-24564D01*
X55831Y-24595D01*
X55828Y-24623D01*
Y-24645D01*
X55825Y-24664D01*
Y-24678D01*
Y-24689D01*
Y-24692D01*
Y-24739D01*
X55831Y-24784D01*
X55836Y-24823D01*
X55842Y-24861D01*
X55850Y-24895D01*
X55861Y-24928D01*
X55870Y-24956D01*
X55881Y-24981D01*
X55892Y-25003D01*
X55900Y-25025D01*
X55911Y-25039D01*
X55920Y-25053D01*
X55925Y-25064D01*
X55931Y-25072D01*
X55936Y-25075D01*
Y-25078D01*
X55956Y-25100D01*
X55978Y-25120D01*
X56022Y-25150D01*
X56067Y-25172D01*
X56108Y-25186D01*
X56144Y-25197D01*
X56175Y-25200D01*
X56186Y-25203D01*
X56200D01*
X56228Y-25200D01*
X56255Y-25197D01*
X56305Y-25183D01*
X56353Y-25161D01*
X56391Y-25136D01*
X56422Y-25114D01*
X56447Y-25092D01*
X56461Y-25078D01*
X56464Y-25072D01*
X56466D01*
X56486Y-25045D01*
X56503Y-25017D01*
X56530Y-24953D01*
X56550Y-24886D01*
X56564Y-24823D01*
X56572Y-24764D01*
X56575Y-24739D01*
Y-24717D01*
X56577Y-24698D01*
Y-24684D01*
Y-24675D01*
Y-24673D01*
Y-24623D01*
X56572Y-24575D01*
X56566Y-24531D01*
X56561Y-24492D01*
X56553Y-24456D01*
X56544Y-24423D01*
X56536Y-24392D01*
X56525Y-24364D01*
X56514Y-24342D01*
X56505Y-24323D01*
X56497Y-24306D01*
X56489Y-24292D01*
X56480Y-24281D01*
X56478Y-24273D01*
X56472Y-24270D01*
Y-24267D01*
X56453Y-24245D01*
X56430Y-24223D01*
X56386Y-24192D01*
X56342Y-24167D01*
X56300Y-24153D01*
X56264Y-24142D01*
X56233Y-24140D01*
X56222Y-24137D01*
D02*
G37*
%LPD*%
D10*
X0Y0D02*
Y97000D01*
Y0D02*
X66000D01*
Y97000D01*
X0D02*
X66000D01*
D50*
X33200Y74291D02*
D03*
Y75815D02*
D03*
Y71093D02*
D03*
Y72617D02*
D03*
D54*
X35599Y74345D02*
D03*
Y75361D02*
D03*
D57*
X56199Y72501D02*
D03*
X55099D02*
D03*
X22200Y71100D02*
D03*
Y70000D02*
D03*
X29800Y70144D02*
D03*
Y69044D02*
D03*
X37198Y68856D02*
D03*
Y69956D02*
D03*
X33499Y68256D02*
D03*
X34599D02*
D03*
Y66657D02*
D03*
X33499D02*
D03*
X36767Y64844D02*
D03*
X37867D02*
D03*
Y63421D02*
D03*
X36767D02*
D03*
X13696Y54320D02*
D03*
Y53220D02*
D03*
X45394Y51065D02*
D03*
Y52165D02*
D03*
X19807Y48567D02*
D03*
Y47467D02*
D03*
X39299Y80121D02*
D03*
X40399D02*
D03*
X18827Y38216D02*
D03*
Y37116D02*
D03*
X55099Y80121D02*
D03*
X56199D02*
D03*
X40399Y77581D02*
D03*
X39299D02*
D03*
X55099D02*
D03*
X56199D02*
D03*
X40399Y75041D02*
D03*
X39299D02*
D03*
X55099D02*
D03*
X56199D02*
D03*
X40399Y72501D02*
D03*
X39299D02*
D03*
D60*
X31159Y92751D02*
D03*
X35553D02*
D03*
D61*
X32635Y2635D02*
D03*
X40985D02*
D03*
X32635Y1895D02*
D03*
X40985Y2250D02*
D03*
X32635D02*
D03*
X40985Y1895D02*
D03*
D62*
X34585Y5275D02*
D03*
X39035D02*
D03*
D63*
X40985Y2250D02*
D03*
X32635D02*
D03*
D64*
X39035Y1775D02*
D03*
X34585Y1500D02*
D03*
X39035D02*
D03*
X34585Y2050D02*
D03*
Y1775D02*
D03*
X39035Y2050D02*
D03*
D65*
X59670Y91120D02*
D03*
X6330Y73000D02*
D03*
Y75540D02*
D03*
Y78080D02*
D03*
Y80620D02*
D03*
Y83160D02*
D03*
X47299Y72501D02*
D03*
Y75041D02*
D03*
Y77581D02*
D03*
X59670Y2220D02*
D03*
X57130D02*
D03*
X59670Y4760D02*
D03*
X57130D02*
D03*
X59670Y7300D02*
D03*
X57130D02*
D03*
X59670Y9840D02*
D03*
X57130D02*
D03*
X59670Y12380D02*
D03*
X57130D02*
D03*
X59670Y14920D02*
D03*
X57130D02*
D03*
X59670Y17460D02*
D03*
X57130D02*
D03*
X59670Y20000D02*
D03*
X57130D02*
D03*
X59670Y22540D02*
D03*
X57130D02*
D03*
X59670Y25080D02*
D03*
X57130D02*
D03*
X59670Y27620D02*
D03*
X57130D02*
D03*
X59670Y30160D02*
D03*
X57130D02*
D03*
X59670Y32700D02*
D03*
X57130D02*
D03*
X59670Y35240D02*
D03*
X57130D02*
D03*
X59670Y37780D02*
D03*
X57130D02*
D03*
X59670Y40320D02*
D03*
X57130D02*
D03*
X59670Y42860D02*
D03*
X57130D02*
D03*
X59670Y45400D02*
D03*
X57130D02*
D03*
X59670Y47940D02*
D03*
X57130D02*
D03*
X59670Y50480D02*
D03*
X57130D02*
D03*
X59670Y53020D02*
D03*
X57130D02*
D03*
X59670Y55560D02*
D03*
X57130D02*
D03*
X59670Y58100D02*
D03*
X57130D02*
D03*
X59670Y60640D02*
D03*
X57130D02*
D03*
X59670Y63180D02*
D03*
X17608Y53193D02*
D03*
X6330Y91120D02*
D03*
X8870Y63180D02*
D03*
X6330Y60640D02*
D03*
X8870D02*
D03*
X6330Y58100D02*
D03*
X8870D02*
D03*
X6330Y55560D02*
D03*
X8870D02*
D03*
X6330Y53020D02*
D03*
X8870D02*
D03*
X6330Y50480D02*
D03*
X8870D02*
D03*
X6330Y47940D02*
D03*
X8870D02*
D03*
X6330Y45400D02*
D03*
X8870D02*
D03*
X6330Y42860D02*
D03*
X8870D02*
D03*
X6330Y40320D02*
D03*
X8870D02*
D03*
X6330Y37780D02*
D03*
X8870D02*
D03*
X6330Y35240D02*
D03*
X8870D02*
D03*
X6330Y32700D02*
D03*
X8870D02*
D03*
X6330Y30160D02*
D03*
X8870D02*
D03*
X6330Y27620D02*
D03*
X8870D02*
D03*
X6330Y25080D02*
D03*
X8870D02*
D03*
X6330Y22540D02*
D03*
X8870D02*
D03*
X6330Y20000D02*
D03*
X8870D02*
D03*
X6330Y17460D02*
D03*
X8870D02*
D03*
X6330Y14920D02*
D03*
X8870D02*
D03*
X6330Y12380D02*
D03*
X8870D02*
D03*
X6330Y9840D02*
D03*
X8870D02*
D03*
X6330Y7300D02*
D03*
X8870D02*
D03*
X6330Y4760D02*
D03*
X8870D02*
D03*
X6330Y2220D02*
D03*
X8870D02*
D03*
D66*
X59670Y93660D02*
D03*
X17608Y55733D02*
D03*
X6330Y93660D02*
D03*
D67*
X17014Y9460D02*
D03*
X16760D02*
D03*
X16525D02*
D03*
X17014Y3960D02*
D03*
X16506D02*
D03*
X16760D02*
D03*
X19014Y1660D02*
D03*
X18506D02*
D03*
X18760D02*
D03*
D68*
X6330Y85700D02*
D03*
X47299Y80121D02*
D03*
X57130Y63180D02*
D03*
X6330D02*
D03*
D69*
X33040Y63700D02*
D03*
X28160D02*
D03*
X20122Y76744D02*
D03*
Y81624D02*
D03*
M02*
