M48
;Layer_Color=9474304
;FILE_FORMAT=4:3
METRIC,LZ
;TYPE=PLATED
T1F00S00C0.300
T2F00S00C0.650
T3F00S00C0.813
T4F00S00C0.830
T5F00S00C1.016
T6F00S00C1.200
T7F00S00C1.400
%
T01
X0048792Y000149
X005078Y0001496
X00514Y00031
X0053091Y0003325
X0054844Y000302
X005078Y0004544
X00506Y00065
X0048592Y0005688
X00474Y00065
X0049623Y0008975
X0050191Y0009961
X00518Y00101
Y00093
X006475Y0006068
Y0000988
X0042595Y000229
Y0003889
X0042795Y0006688
X0043859Y0005751
X004062Y0006131
X0039996Y0006688
X0038547Y0007267
X0040396Y0008687
X0040925Y000937
X0041396Y0010286
X0045755Y0009013
X00356Y00067
X0031601Y0009486
X00294Y00095
X00272Y00093
X0028202Y0007887
X0024804Y0004289
X0022805Y000309
X0020806
X0021206Y0000691
X0022405
X0023405
X0030601Y0001091
X0039397Y0000491
X0023Y00103
X0012426Y0004798
X0001504Y0006068
Y0000988
Y0011148
Y0016228
Y0021308
Y0026388
Y0031468
Y0036548
Y0041628
Y0046454
X001395Y0045489
X0015931Y004686
X0016808Y0046867
Y0047467
X0018607Y0048466
X0020806Y0047667
X0026904
Y0048994
X0026803Y0046068
X00266Y00449
X0027003Y0044069
X0027403Y004207
X00298Y00421
X00294Y00429
X0029202Y0045668
X00299Y00496
X0032848Y0049451
X0033999Y0048866
Y0047267
X00362Y0047318
X0036198Y0048866
Y0049604
X0034981
X0038597Y0049666
X0038639Y0048866
Y0047927
X0038397Y0047267
X0037398Y0044269
X0037598Y0043069
X0036598Y0043269
X0035599Y0043069
X0034245Y004333
X0034799Y0044468
X0034829Y003924
X0035591Y0038936
X0036048Y0038326
Y0037374
X0036556Y0035278
X0037997Y0032874
X0038997Y0032475
X0042144Y0031722
X0043922
X0043395Y0028477
X0042144
Y0029436
X0042601Y0026794
X0042595Y0026078
X0042754Y0024153
X0043058Y0022781
X0042296
X0040196Y0020081
X00388Y00189
X0037798Y0018682
X0037198Y0020081
X0038197Y002128
X0037997Y0024479
X0034372Y0024153
X003319Y002442
X0032086Y0026286
X0030401Y0025878
Y0025278
X0029002Y0027077
X0028802Y0027877
X00282Y00277
X0026955Y002715
X0027003Y0024479
X0027803
Y002188
X0028602
X00264Y00219
X0025604Y002188
X0027Y00197
X0027003Y0018682
X0030801Y0016483
X0028402Y0014084
Y0013284
X0031601Y0011086
X00332Y00111
X003554Y001191
X0040796Y0014084
X0042754Y0014247
X0042906Y0016799
X0043668Y0016419
X004443Y0015771
X0045194Y0018482
Y0019481
X0046593
Y0018482
X0046716Y0020481
X0045344Y0025067
Y0025829
X0045594Y0034873
X0046393Y0035073
X0045394Y0036073
Y0037872
X0042595Y0039271
X0041995Y0039471
X0041796Y004147
X0042795Y004167
X0043595Y004207
X0044394Y004247
X0045394
X0046393
X0046593Y0045068
X0045793Y0048666
X0043794Y0048466
X0043595Y0049466
X0044194Y0047667
X0040196Y004187
X0038397Y004227
X0034067Y0038783
X00339Y00306
X00328Y00307
X0033Y0029
X0034016Y0029182
X003554Y0029944
X00355Y00311
X0035896Y0028268
X0037115
X0035286Y0027353
X0034067Y0021867
X0033792Y0021135
X0033991Y001955
X00396Y00155
X0043363Y0011046
X004548Y0011251
X002284Y0011656
X00203
X0021006Y0013484
X0021806
X00184Y00155
X001776Y0016228
Y001826
X0018607Y0019081
Y002128
X001776Y0021308
X0016465Y0021283
Y0024127
X001776Y0022832
X0018607Y002268
X0021206Y0024279
X0022206Y0024079
X0022405Y0025678
X0023405
X0024404
X0021406
X0020806Y0025078
X0021Y00201
X0014153Y001826
Y0014882
X0014204Y0012672
X0016236
Y001572
X0012426Y0013942
X0013442Y002334
X0013975Y0024839
X0016465Y0027328
X0017709Y0028039
X0016236Y003223
Y0035786
X001776Y0037107
X0017608Y0038783
X0023005Y0039071
X0022605Y004067
X0025075Y0039545
X002477Y0038783
X0024288Y0037996
X0024643Y0037285
X0024821Y003604
X0023932Y0036573
X002411Y0035329
X0028402Y0035473
X0029381Y0029944
X0041357Y0035684
X0046993Y0043069
X0047593Y0043669
Y0044468
X0047792Y0046068
X0046993Y0045868
X0047402Y0049019
X0049592Y0049066
X0050991Y004227
X0055588Y0039871
X0054989Y0038671
X006475Y0036548
Y0041628
Y0046708
Y0031468
Y0026388
Y0021308
Y0016228
Y0010894
X0050191Y0010886
X0051117Y0011948
X0048748Y0014284
X0046911Y0014247
X0046993Y0015083
X0048748Y0016736
Y0019276
X0047173Y0021257
X0047021Y0022172
X0048748Y0022832
X004824Y0024102
X0047021Y0025067
Y0025677
X004708Y0011274
X0047792Y0051265
X0047992Y0052065
Y0053064
X0047193Y0053664
X0047593Y0054463
X0048592Y0050465
X0050791
X0050221Y0058138
X0050191Y0059061
X0049459Y0058595
X0051288Y0060881
X0050791Y006146
X005144Y0063624
X0051191Y0065258
X0050591Y0064658
X0049256Y0066012
X005144Y0067282
X0052202Y0067587
X0053117
X005078Y0068044
X0047792Y0068056
X0046793Y006026
X0054031Y0060729
Y0061643
X005525Y0056614
X006475Y0057122
Y0061694
X0063784Y0066457
X0062785
X006475Y006906
X0058146Y0069314
X006475Y0076172
Y0082268
Y0087348
X0053447Y0088313
X0051669Y0088491
X00486Y00869
X0048592Y0083848
X005179
X006475Y0051788
X0044194Y0051665
X0043195Y0050865
X00428Y00547
X00438
X0039248Y005509
X0038597Y0054463
X0037798Y0054663
X0036998Y0054463
X0036798Y0053664
X0035399
X0034219Y0053871
X0033457
X00332Y00551
X00342
X0035599Y0055063
X0036398
X0032Y00549
X00312Y00547
X00304Y00549
X00296Y00551
X0029602Y0053864
X0029952Y0052804
X0031001Y0052864
X003173Y0053312
X00286Y0053
X0028202Y0054064
Y0054863
X0026403
Y0054064
Y0053064
X0027818Y0051432
X0028733Y0051585
X00299Y00504
X00288Y00603
X0027603Y0059261
X0026203
X00252Y00599
Y00607
X00238Y00659
X00218Y00649
X0020606Y0063059
X0019807
X0019Y00643
X00162Y00615
X0012172Y0063472
X00144Y00669
Y00683
X0013188Y0069568
Y0072052
X0012396Y0072845
X0008616Y007414
Y007668
X0009632Y0080744
X0012172
X0012426Y008303
X00128Y00853
X00156Y00841
X0018903Y0084618
X0019284Y0086332
X0021316
Y0088364
X0019284
X0025888
X0026142Y0086586
X0024618
X0027666
X002665Y0083538
X0025868Y008176
X0029444Y0079982
X0030968
X0032001Y008005
X0031401Y0079051
X0031476Y007795
X0033152Y0077798
X0033457Y0076883
X0032543Y0077036
X0032001Y0076052
X0031Y00743
X0030002Y0074253
X0028733Y0075512
X0028682Y0076426
X00288Y00781
X003427Y0078712
X0034016Y0079982
X0034999Y0082449
X0036556Y0081506
X0039197Y008145
X0040196
X0039996Y0084048
X00398Y00855
X0037598Y0085448
Y0084248
X0036198Y0085448
X0031222Y0084046
X0030206Y0084554
X00306Y00879
X0021316Y0083792
X0017608Y0079451
X0015962Y0079184
X0016009Y0075253
X0017808Y0074053
X0022006Y0073853
X0023605Y0075053
X002349Y00759
X0023551Y0070635
X00206Y00701
X00188
X0020518Y0072052
X0027028Y0072845
X0027971Y0071092
X0028733Y0070787
X00298Y0071092
X0027209Y0069797
X0026294Y006972
X0029495Y0067282
X00314Y0066266
X0032238Y0068044
X0035896
X0036198Y0070055
X0035591Y0070635
X0034524Y007033
X0034799Y0071855
X0035599Y0073654
X0037198Y0074053
X0036998Y0075453
X0037064Y0076934
Y007922
X00406Y0078851
X0039996Y0076252
X0038791Y0071244
X0037798Y0071455
X0041077Y007094
X0043058Y0071244
X0043994Y0068056
X0045793
X0044994Y0065058
Y0063059
X0044594Y0060424
X0045192Y0059357
X004603
X0040391Y0060424
X0040196Y0062659
X0039797Y0065458
X0038797Y0066257
X0038588Y0068044
X0036398Y0065858
X0036598Y006206
X0037826Y0061186
X0033952
X0034599Y0062459
X0035199Y0059061
X0021606Y0057262
Y0056662
X0020606Y0053864
X00124Y00543
X0011664Y0052194
X0011512Y0051432
X001395Y0055852
X0008Y00675
X0012934Y0078204
X0034199Y0074853
X0044938Y0073886
X0045192Y0080744
X0043Y00855
X0046716Y0086713
X0006076Y0088364
X0001504Y0088872
Y00843
Y0079474
Y007414
Y006906
X0004552
X0001504Y0066012
Y0061948
Y0056868
Y0051788
Y0093952
X0011156Y0093444
Y0090904
X0019538
X0021316
X0022522Y0092999
X0023475
X0025888Y009192
Y0094968
X0018776
X0033Y0094043
Y0092044
X0041396Y0094043
X0045192Y0091412
X0047986
X0055606
X0057384
X006475Y0092174
T02
X0034585Y0005275
X0039035
T03
X002816Y00637
X003304
X0020122Y0076744
Y0081624
T04
X0032635Y0001895
Y000225
Y0002635
X0040985
Y000225
Y0001895
T05
X005713Y000222
X005967
Y000476
X005713
Y00073
X005967
Y000984
X005713
X000887
Y00073
Y000476
Y000222
X000633
Y000476
Y00073
Y000984
Y001238
Y001492
Y001746
Y002
Y002254
Y002508
Y002762
Y003016
Y00327
Y003524
Y003778
Y004032
Y004286
Y00454
Y004794
X000887
Y00454
Y004286
Y004032
Y003778
Y003524
Y00327
Y003016
Y002762
Y002508
Y002254
Y002
Y001746
Y001492
Y001238
X005713
X005967
Y001492
X005713
Y001746
X005967
Y002
X005713
Y002254
X005967
Y002508
X005713
Y002762
X005967
Y003016
X005713
Y00327
X005967
Y003524
X005713
Y003778
X005967
Y004032
X005713
Y004286
X005967
Y00454
X005713
Y004794
X005967
Y005048
X005713
Y005302
X005967
Y005556
X005713
Y00581
X005967
Y006064
X005713
Y006318
X005967
X0047299Y0072501
Y0075041
Y0077581
Y0080121
X0017608Y0055733
Y0053193
X000887Y005302
Y005556
Y00581
Y006064
Y006318
Y005048
X000633
Y005302
Y005556
Y00581
Y006064
Y006318
Y0073
Y007554
Y007808
Y008062
Y008316
Y00857
Y009112
Y009366
X005967
Y009112
T06
X0018506Y000166
X001876
X0019014
X0017014Y000396
X0016506
X0016525Y000946
X001676
X0017014
T07
X001676Y000396
M30
