G04*
G04 #@! TF.GenerationSoftware,Altium Limited,Altium Designer,20.0.11 (256)*
G04*
G04 Layer_Color=128*
%FSLAX43Y43*%
%MOMM*%
G71*
G01*
G75*
%ADD10C,0.254*%
%ADD137C,0.051*%
D10*
X0Y0D02*
Y97000D01*
Y0D02*
X66000D01*
Y97000D01*
X0D02*
X66000D01*
D137*
X30659Y92751D02*
X31659D01*
X31159Y92251D02*
Y93251D01*
X35053Y92751D02*
X36053D01*
X35553Y92251D02*
Y93251D01*
X32220Y2635D02*
X33050D01*
X32635Y2220D02*
Y3050D01*
X40570Y2635D02*
X41400D01*
X40985Y2220D02*
Y3050D01*
X32220Y1895D02*
X33050D01*
X32635Y1480D02*
Y2310D01*
X40570Y2250D02*
X41400D01*
X40985Y1835D02*
Y2665D01*
X32220Y2250D02*
X33050D01*
X32635Y1835D02*
Y2665D01*
X40570Y1895D02*
X41400D01*
X40985Y1480D02*
Y2310D01*
X34260Y5275D02*
X34910D01*
X34585Y4950D02*
Y5600D01*
X38710Y5275D02*
X39360D01*
X39035Y4950D02*
Y5600D01*
X40570Y2250D02*
X41400D01*
X40985Y1835D02*
Y2665D01*
X32220Y2250D02*
X33050D01*
X32635Y1835D02*
Y2665D01*
X38585Y1775D02*
X39485D01*
X39035Y1325D02*
Y2225D01*
X34135Y1500D02*
X35035D01*
X34585Y1050D02*
Y1950D01*
X38585Y1500D02*
X39485D01*
X39035Y1050D02*
Y1950D01*
X34135Y2050D02*
X35035D01*
X34585Y1601D02*
Y2500D01*
X34135Y1775D02*
X35035D01*
X34585Y1325D02*
Y2225D01*
X38585Y2050D02*
X39485D01*
X39035Y1601D02*
Y2500D01*
X59162Y91120D02*
X60178D01*
X59670Y90612D02*
Y91628D01*
X59162Y93660D02*
X60178D01*
X59670Y93152D02*
Y94168D01*
X16414Y9460D02*
X17614D01*
X17014Y8860D02*
Y10060D01*
X16160Y9460D02*
X17360D01*
X16760Y8860D02*
Y10060D01*
X15925Y9460D02*
X17125D01*
X16525Y8860D02*
Y10060D01*
X16414Y3960D02*
X17614D01*
X17014Y3360D02*
Y4560D01*
X15906Y3960D02*
X17106D01*
X16506Y3360D02*
Y4560D01*
X16060Y3960D02*
X17460D01*
X16760Y3260D02*
Y4660D01*
X18414Y1660D02*
X19614D01*
X19014Y1060D02*
Y2260D01*
X17906Y1660D02*
X19106D01*
X18506Y1060D02*
Y2260D01*
X18160Y1660D02*
X19360D01*
X18760Y1060D02*
Y2260D01*
X5822Y73000D02*
X6838D01*
X6330Y72492D02*
Y73508D01*
X5822Y75540D02*
X6838D01*
X6330Y75032D02*
Y76048D01*
X5822Y78080D02*
X6838D01*
X6330Y77572D02*
Y78588D01*
X5822Y80620D02*
X6838D01*
X6330Y80112D02*
Y81128D01*
X5822Y83160D02*
X6838D01*
X6330Y82652D02*
Y83668D01*
X5822Y85700D02*
X6838D01*
X6330Y85192D02*
Y86208D01*
X46791Y72501D02*
X47807D01*
X47299Y71993D02*
Y73009D01*
X46791Y75041D02*
X47807D01*
X47299Y74533D02*
Y75549D01*
X46791Y77581D02*
X47807D01*
X47299Y77073D02*
Y78089D01*
X46791Y80121D02*
X47807D01*
X47299Y79613D02*
Y80629D01*
X59162Y2220D02*
X60178D01*
X59670Y1712D02*
Y2728D01*
X56622Y2220D02*
X57638D01*
X57130Y1712D02*
Y2728D01*
X59162Y4760D02*
X60178D01*
X59670Y4252D02*
Y5268D01*
X56622Y4760D02*
X57638D01*
X57130Y4252D02*
Y5268D01*
X59162Y7300D02*
X60178D01*
X59670Y6792D02*
Y7808D01*
X56622Y7300D02*
X57638D01*
X57130Y6792D02*
Y7808D01*
X59162Y9840D02*
X60178D01*
X59670Y9332D02*
Y10348D01*
X56622Y9840D02*
X57638D01*
X57130Y9332D02*
Y10348D01*
X59162Y12380D02*
X60178D01*
X59670Y11872D02*
Y12888D01*
X56622Y12380D02*
X57638D01*
X57130Y11872D02*
Y12888D01*
X59162Y14920D02*
X60178D01*
X59670Y14412D02*
Y15428D01*
X56622Y14920D02*
X57638D01*
X57130Y14412D02*
Y15428D01*
X59162Y17460D02*
X60178D01*
X59670Y16952D02*
Y17968D01*
X56622Y17460D02*
X57638D01*
X57130Y16952D02*
Y17968D01*
X59162Y20000D02*
X60178D01*
X59670Y19492D02*
Y20508D01*
X56622Y20000D02*
X57638D01*
X57130Y19492D02*
Y20508D01*
X59162Y22540D02*
X60178D01*
X59670Y22032D02*
Y23048D01*
X56622Y22540D02*
X57638D01*
X57130Y22032D02*
Y23048D01*
X59162Y25080D02*
X60178D01*
X59670Y24572D02*
Y25588D01*
X56622Y25080D02*
X57638D01*
X57130Y24572D02*
Y25588D01*
X59162Y27620D02*
X60178D01*
X59670Y27112D02*
Y28128D01*
X56622Y27620D02*
X57638D01*
X57130Y27112D02*
Y28128D01*
X59162Y30160D02*
X60178D01*
X59670Y29652D02*
Y30668D01*
X56622Y30160D02*
X57638D01*
X57130Y29652D02*
Y30668D01*
X59162Y32700D02*
X60178D01*
X59670Y32192D02*
Y33208D01*
X56622Y32700D02*
X57638D01*
X57130Y32192D02*
Y33208D01*
X59162Y35240D02*
X60178D01*
X59670Y34732D02*
Y35748D01*
X56622Y35240D02*
X57638D01*
X57130Y34732D02*
Y35748D01*
X59162Y37780D02*
X60178D01*
X59670Y37272D02*
Y38288D01*
X56622Y37780D02*
X57638D01*
X57130Y37272D02*
Y38288D01*
X59162Y40320D02*
X60178D01*
X59670Y39812D02*
Y40828D01*
X56622Y40320D02*
X57638D01*
X57130Y39812D02*
Y40828D01*
X59162Y42860D02*
X60178D01*
X59670Y42352D02*
Y43368D01*
X56622Y42860D02*
X57638D01*
X57130Y42352D02*
Y43368D01*
X59162Y45400D02*
X60178D01*
X59670Y44892D02*
Y45908D01*
X56622Y45400D02*
X57638D01*
X57130Y44892D02*
Y45908D01*
X59162Y47940D02*
X60178D01*
X59670Y47432D02*
Y48448D01*
X56622Y47940D02*
X57638D01*
X57130Y47432D02*
Y48448D01*
X59162Y50480D02*
X60178D01*
X59670Y49972D02*
Y50988D01*
X56622Y50480D02*
X57638D01*
X57130Y49972D02*
Y50988D01*
X59162Y53020D02*
X60178D01*
X59670Y52512D02*
Y53528D01*
X56622Y53020D02*
X57638D01*
X57130Y52512D02*
Y53528D01*
X59162Y55560D02*
X60178D01*
X59670Y55052D02*
Y56068D01*
X56622Y55560D02*
X57638D01*
X57130Y55052D02*
Y56068D01*
X59162Y58100D02*
X60178D01*
X59670Y57592D02*
Y58608D01*
X56622Y58100D02*
X57638D01*
X57130Y57592D02*
Y58608D01*
X59162Y60640D02*
X60178D01*
X59670Y60132D02*
Y61148D01*
X56622Y60640D02*
X57638D01*
X57130Y60132D02*
Y61148D01*
X59162Y63180D02*
X60178D01*
X59670Y62672D02*
Y63688D01*
X56622Y63180D02*
X57638D01*
X57130Y62672D02*
Y63688D01*
X32634Y63700D02*
X33446D01*
X33040Y63294D02*
Y64106D01*
X27754Y63700D02*
X28566D01*
X28160Y63294D02*
Y64106D01*
X17100Y55733D02*
X18116D01*
X17608Y55225D02*
Y56241D01*
X17100Y53193D02*
X18116D01*
X17608Y52685D02*
Y53701D01*
X5822Y93660D02*
X6838D01*
X6330Y93152D02*
Y94168D01*
X5822Y91120D02*
X6838D01*
X6330Y90612D02*
Y91628D01*
X5822Y63180D02*
X6838D01*
X6330Y62672D02*
Y63688D01*
X8362Y63180D02*
X9378D01*
X8870Y62672D02*
Y63688D01*
X5822Y60640D02*
X6838D01*
X6330Y60132D02*
Y61148D01*
X8362Y60640D02*
X9378D01*
X8870Y60132D02*
Y61148D01*
X5822Y58100D02*
X6838D01*
X6330Y57592D02*
Y58608D01*
X8362Y58100D02*
X9378D01*
X8870Y57592D02*
Y58608D01*
X5822Y55560D02*
X6838D01*
X6330Y55052D02*
Y56068D01*
X8362Y55560D02*
X9378D01*
X8870Y55052D02*
Y56068D01*
X5822Y53020D02*
X6838D01*
X6330Y52512D02*
Y53528D01*
X8362Y53020D02*
X9378D01*
X8870Y52512D02*
Y53528D01*
X5822Y50480D02*
X6838D01*
X6330Y49972D02*
Y50988D01*
X8362Y50480D02*
X9378D01*
X8870Y49972D02*
Y50988D01*
X5822Y47940D02*
X6838D01*
X6330Y47432D02*
Y48448D01*
X8362Y47940D02*
X9378D01*
X8870Y47432D02*
Y48448D01*
X5822Y45400D02*
X6838D01*
X6330Y44892D02*
Y45908D01*
X8362Y45400D02*
X9378D01*
X8870Y44892D02*
Y45908D01*
X5822Y42860D02*
X6838D01*
X6330Y42352D02*
Y43368D01*
X8362Y42860D02*
X9378D01*
X8870Y42352D02*
Y43368D01*
X5822Y40320D02*
X6838D01*
X6330Y39812D02*
Y40828D01*
X8362Y40320D02*
X9378D01*
X8870Y39812D02*
Y40828D01*
X5822Y37780D02*
X6838D01*
X6330Y37272D02*
Y38288D01*
X8362Y37780D02*
X9378D01*
X8870Y37272D02*
Y38288D01*
X5822Y35240D02*
X6838D01*
X6330Y34732D02*
Y35748D01*
X8362Y35240D02*
X9378D01*
X8870Y34732D02*
Y35748D01*
X5822Y32700D02*
X6838D01*
X6330Y32192D02*
Y33208D01*
X8362Y32700D02*
X9378D01*
X8870Y32192D02*
Y33208D01*
X5822Y30160D02*
X6838D01*
X6330Y29652D02*
Y30668D01*
X8362Y30160D02*
X9378D01*
X8870Y29652D02*
Y30668D01*
X5822Y27620D02*
X6838D01*
X6330Y27112D02*
Y28128D01*
X8362Y27620D02*
X9378D01*
X8870Y27112D02*
Y28128D01*
X5822Y25080D02*
X6838D01*
X6330Y24572D02*
Y25588D01*
X8362Y25080D02*
X9378D01*
X8870Y24572D02*
Y25588D01*
X5822Y22540D02*
X6838D01*
X6330Y22032D02*
Y23048D01*
X8362Y22540D02*
X9378D01*
X8870Y22032D02*
Y23048D01*
X5822Y20000D02*
X6838D01*
X6330Y19492D02*
Y20508D01*
X8362Y20000D02*
X9378D01*
X8870Y19492D02*
Y20508D01*
X5822Y17460D02*
X6838D01*
X6330Y16952D02*
Y17968D01*
X8362Y17460D02*
X9378D01*
X8870Y16952D02*
Y17968D01*
X5822Y14920D02*
X6838D01*
X6330Y14412D02*
Y15428D01*
X8362Y14920D02*
X9378D01*
X8870Y14412D02*
Y15428D01*
X5822Y12380D02*
X6838D01*
X6330Y11872D02*
Y12888D01*
X8362Y12380D02*
X9378D01*
X8870Y11872D02*
Y12888D01*
X5822Y9840D02*
X6838D01*
X6330Y9332D02*
Y10348D01*
X8362Y9840D02*
X9378D01*
X8870Y9332D02*
Y10348D01*
X5822Y7300D02*
X6838D01*
X6330Y6792D02*
Y7808D01*
X8362Y7300D02*
X9378D01*
X8870Y6792D02*
Y7808D01*
X5822Y4760D02*
X6838D01*
X6330Y4252D02*
Y5268D01*
X8362Y4760D02*
X9378D01*
X8870Y4252D02*
Y5268D01*
X5822Y2220D02*
X6838D01*
X6330Y1712D02*
Y2728D01*
X8362Y2220D02*
X9378D01*
X8870Y1712D02*
Y2728D01*
X19716Y76744D02*
X20529D01*
X20122Y76338D02*
Y77151D01*
X19716Y81624D02*
X20529D01*
X20122Y81218D02*
Y82031D01*
X45330Y11251D02*
X45630D01*
X45480Y11101D02*
Y11401D01*
X46930Y11274D02*
X47230D01*
X47080Y11124D02*
Y11424D01*
X50041Y9961D02*
X50341D01*
X50191Y9811D02*
Y10111D01*
X49473Y8975D02*
X49773D01*
X49623Y8825D02*
Y9125D01*
X45605Y9013D02*
X45905D01*
X45755Y8863D02*
Y9163D01*
X46761Y14247D02*
X47061D01*
X46911Y14097D02*
Y14397D01*
X50967Y11948D02*
X51267D01*
X51117Y11798D02*
Y12098D01*
X51650Y10100D02*
X51950D01*
X51800Y9950D02*
Y10250D01*
X40470Y6131D02*
X40770D01*
X40620Y5982D02*
Y6281D01*
X40775Y9370D02*
X41075D01*
X40925Y9220D02*
Y9520D01*
X16086Y32230D02*
X16386D01*
X16236Y32080D02*
Y32380D01*
X22455Y40670D02*
X22755D01*
X22605Y40520D02*
Y40820D01*
X16086Y35786D02*
X16386D01*
X16236Y35636D02*
Y35936D01*
X16658Y46867D02*
X16958D01*
X16808Y46717D02*
Y47017D01*
X16658Y47467D02*
X16958D01*
X16808Y47317D02*
Y47617D01*
X42650Y54700D02*
X42950D01*
X42800Y54550D02*
Y54850D01*
X47642Y51265D02*
X47942D01*
X47792Y51115D02*
Y51415D01*
X43650Y54700D02*
X43950D01*
X43800Y54550D02*
Y54850D01*
X37676Y61186D02*
X37976D01*
X37826Y61036D02*
Y61336D01*
X45880Y59357D02*
X46180D01*
X46030Y59207D02*
Y59507D01*
X63634Y66457D02*
X63934D01*
X63784Y66307D02*
Y66607D01*
X62635Y66457D02*
X62935D01*
X62785Y66307D02*
Y66607D01*
X51041Y65258D02*
X51341D01*
X51191Y65108D02*
Y65408D01*
X50441Y64658D02*
X50741D01*
X50591Y64508D02*
Y64808D01*
X45042Y59357D02*
X45342D01*
X45192Y59207D02*
Y59507D01*
X33803Y61186D02*
X34103D01*
X33952Y61036D02*
Y61336D01*
X28650Y60300D02*
X28950D01*
X28800Y60150D02*
Y60450D01*
X25050Y59900D02*
X25350D01*
X25200Y59750D02*
Y60050D01*
X25050Y60700D02*
X25350D01*
X25200Y60550D02*
Y60850D01*
X19657Y63059D02*
X19957D01*
X19807Y62909D02*
Y63209D01*
X20456Y63059D02*
X20756D01*
X20606Y62909D02*
Y63209D01*
X12250Y54300D02*
X12550D01*
X12400Y54150D02*
Y54450D01*
X36914Y76934D02*
X37214D01*
X37064Y76784D02*
Y77084D01*
X36048Y70055D02*
X36348D01*
X36198Y69905D02*
Y70205D01*
X27059Y69797D02*
X27359D01*
X27209Y69647D02*
Y69947D01*
X12246Y72845D02*
X12546D01*
X12396Y72695D02*
Y72995D01*
X35449Y73654D02*
X35749D01*
X35599Y73504D02*
Y73804D01*
X29650Y71092D02*
X29950D01*
X29800Y70942D02*
Y71242D01*
X13038Y72052D02*
X13338D01*
X13188Y71902D02*
Y72202D01*
X12784Y78204D02*
X13084D01*
X12934Y78054D02*
Y78354D01*
X26144Y69720D02*
X26444D01*
X26294Y69570D02*
Y69870D01*
X34374Y70330D02*
X34674D01*
X34524Y70180D02*
Y70480D01*
X39846Y76252D02*
X40146D01*
X39996Y76102D02*
Y76402D01*
X36848Y75453D02*
X37148D01*
X36998Y75303D02*
Y75603D01*
X12276Y83030D02*
X12576D01*
X12426Y82880D02*
Y83180D01*
X40450Y78851D02*
X40750D01*
X40600Y78701D02*
Y79001D01*
X28583Y70787D02*
X28883D01*
X28733Y70637D02*
Y70937D01*
X35441Y70635D02*
X35741D01*
X35591Y70485D02*
Y70785D01*
X37048Y74053D02*
X37348D01*
X37198Y73903D02*
Y74203D01*
X29294Y79982D02*
X29594D01*
X29444Y79832D02*
Y80132D01*
X30818Y79982D02*
X31118D01*
X30968Y79832D02*
Y80132D01*
X20368Y72052D02*
X20668D01*
X20518Y71902D02*
Y72202D01*
X34120Y78712D02*
X34420D01*
X34270Y78562D02*
Y78862D01*
X33866Y79982D02*
X34166D01*
X34016Y79832D02*
Y80132D01*
X33307Y76883D02*
X33607D01*
X33457Y76733D02*
Y77033D01*
X44044Y51665D02*
X44344D01*
X44194Y51515D02*
Y51815D01*
X20656Y47667D02*
X20956D01*
X20806Y47517D02*
Y47817D01*
X17610Y37107D02*
X17910D01*
X17760Y36957D02*
Y37257D01*
X31250Y66266D02*
X31550D01*
X31400Y66116D02*
Y66416D01*
X55100Y56614D02*
X55400D01*
X55250Y56464D02*
Y56764D01*
X36248Y55063D02*
X36548D01*
X36398Y54913D02*
Y55213D01*
X36848Y54463D02*
X37148D01*
X36998Y54313D02*
Y54613D01*
X37648Y54663D02*
X37948D01*
X37798Y54513D02*
Y54813D01*
X33866Y29182D02*
X34166D01*
X34016Y29032D02*
Y29332D01*
X31580Y53312D02*
X31880D01*
X31730Y53162D02*
Y53462D01*
X38447Y54463D02*
X38747D01*
X38597Y54313D02*
Y54613D01*
X39098Y55090D02*
X39398D01*
X39248Y54940D02*
Y55240D01*
X35390Y29944D02*
X35690D01*
X35540Y29794D02*
Y30094D01*
X30851Y52864D02*
X31151D01*
X31001Y52714D02*
Y53014D01*
X47443Y54463D02*
X47743D01*
X47593Y54313D02*
Y54613D01*
X35350Y31100D02*
X35650D01*
X35500Y30950D02*
Y31250D01*
X29802Y52804D02*
X30102D01*
X29952Y52654D02*
Y52954D01*
X47043Y53664D02*
X47343D01*
X47193Y53514D02*
Y53814D01*
X24671Y36040D02*
X24971D01*
X24821Y35890D02*
Y36190D01*
X23782Y36573D02*
X24082D01*
X23932Y36423D02*
Y36723D01*
X47642Y46068D02*
X47942D01*
X47792Y45918D02*
Y46218D01*
X46843Y45868D02*
X47143D01*
X46993Y45718D02*
Y46018D01*
X46443Y45068D02*
X46743D01*
X46593Y44918D02*
Y45218D01*
X34222Y24153D02*
X34522D01*
X34372Y24003D02*
Y24303D01*
X29052Y45668D02*
X29352D01*
X29202Y45518D02*
Y45818D01*
X47443Y44468D02*
X47743D01*
X47593Y44318D02*
Y44618D01*
X47443Y43669D02*
X47743D01*
X47593Y43519D02*
Y43819D01*
X46843Y43069D02*
X47143D01*
X46993Y42919D02*
Y43219D01*
X35136Y27353D02*
X35436D01*
X35286Y27203D02*
Y27503D01*
X29250Y42900D02*
X29550D01*
X29400Y42750D02*
Y43050D01*
X29650Y42100D02*
X29950D01*
X29800Y41950D02*
Y42250D01*
X35746Y28268D02*
X36046D01*
X35896Y28118D02*
Y28418D01*
X28252Y35473D02*
X28552D01*
X28402Y35323D02*
Y35623D01*
X20656Y25078D02*
X20956D01*
X20806Y24928D02*
Y25228D01*
X23960Y35329D02*
X24260D01*
X24110Y35179D02*
Y35479D01*
X46243Y42470D02*
X46543D01*
X46393Y42319D02*
Y42619D01*
X45244Y42470D02*
X45544D01*
X45394Y42319D02*
Y42619D01*
X36448Y43269D02*
X36748D01*
X36598Y43119D02*
Y43419D01*
X35449Y43069D02*
X35749D01*
X35599Y42919D02*
Y43219D01*
X24254Y25678D02*
X24554D01*
X24404Y25528D02*
Y25828D01*
X27253Y42070D02*
X27553D01*
X27403Y41920D02*
Y42220D01*
X34095Y43330D02*
X34395D01*
X34245Y43180D02*
Y43480D01*
X33917Y38783D02*
X34217D01*
X34067Y38633D02*
Y38933D01*
X37048Y20081D02*
X37348D01*
X37198Y19931D02*
Y20231D01*
X32698Y49451D02*
X32998D01*
X32848Y49301D02*
Y49601D01*
X39450Y15500D02*
X39750D01*
X39600Y15350D02*
Y15650D01*
X29450Y55100D02*
X29750D01*
X29600Y54950D02*
Y55250D01*
X30250Y54900D02*
X30550D01*
X30400Y54750D02*
Y55050D01*
X36248Y65858D02*
X36548D01*
X36398Y65708D02*
Y66008D01*
X36448Y62060D02*
X36748D01*
X36598Y61910D02*
Y62210D01*
X35449Y55063D02*
X35749D01*
X35599Y54913D02*
Y55213D01*
X22255Y25678D02*
X22555D01*
X22405Y25528D02*
Y25828D01*
X26450Y44900D02*
X26750D01*
X26600Y44750D02*
Y45050D01*
X44244Y42470D02*
X44544D01*
X44394Y42319D02*
Y42619D01*
X43445Y42070D02*
X43745D01*
X43595Y41920D02*
Y42220D01*
X23255Y25678D02*
X23555D01*
X23405Y25528D02*
Y25828D01*
X26853Y44069D02*
X27153D01*
X27003Y43919D02*
Y44219D01*
X42645Y41670D02*
X42945D01*
X42795Y41520D02*
Y41820D01*
X31050Y54700D02*
X31350D01*
X31200Y54550D02*
Y54850D01*
X36965Y28268D02*
X37265D01*
X37115Y28118D02*
Y28418D01*
X31850Y54900D02*
X32150D01*
X32000Y54750D02*
Y55050D01*
X28583Y51585D02*
X28883D01*
X28733Y51435D02*
Y51735D01*
X22056Y24079D02*
X22356D01*
X22206Y23929D02*
Y24229D01*
X47842Y53064D02*
X48142D01*
X47992Y52914D02*
Y53214D01*
X47842Y52065D02*
X48142D01*
X47992Y51915D02*
Y52215D01*
X43045Y50865D02*
X43345D01*
X43195Y50715D02*
Y51015D01*
X27668Y51432D02*
X27968D01*
X27818Y51282D02*
Y51582D01*
X21056Y24279D02*
X21356D01*
X21206Y24129D02*
Y24429D01*
X45643Y48666D02*
X45943D01*
X45793Y48516D02*
Y48816D01*
X43445Y49466D02*
X43745D01*
X43595Y49316D02*
Y49616D01*
X43644Y48466D02*
X43944D01*
X43794Y48316D02*
Y48616D01*
X44044Y47667D02*
X44344D01*
X44194Y47517D02*
Y47817D01*
X50841Y42270D02*
X51141D01*
X50991Y42120D02*
Y42420D01*
X51290Y67282D02*
X51590D01*
X51440Y67132D02*
Y67432D01*
X24493Y37285D02*
X24793D01*
X24643Y37135D02*
Y37435D01*
X24138Y37996D02*
X24438D01*
X24288Y37846D02*
Y38146D01*
X24620Y38783D02*
X24920D01*
X24770Y38633D02*
Y38933D01*
X24925Y39545D02*
X25225D01*
X25075Y39395D02*
Y39695D01*
X48442Y5688D02*
X48742D01*
X48592Y5538D02*
Y5838D01*
X12276Y4798D02*
X12576D01*
X12426Y4648D02*
Y4948D01*
X12276Y13942D02*
X12576D01*
X12426Y13792D02*
Y14092D01*
X13292Y23340D02*
X13592D01*
X13442Y23190D02*
Y23490D01*
X38397Y7267D02*
X38697D01*
X38547Y7117D02*
Y7417D01*
X38047Y21280D02*
X38347D01*
X38197Y21130D02*
Y21430D01*
X34679Y39240D02*
X34979D01*
X34829Y39090D02*
Y39390D01*
X46566Y20481D02*
X46866D01*
X46716Y20331D02*
Y20631D01*
X37448Y43069D02*
X37748D01*
X37598Y42919D02*
Y43219D01*
X32850Y29000D02*
X33150D01*
X33000Y28850D02*
Y29150D01*
X29750Y49600D02*
X30050D01*
X29900Y49450D02*
Y49750D01*
X33750Y30600D02*
X34050D01*
X33900Y30450D02*
Y30750D01*
X29750Y50400D02*
X30050D01*
X29900Y50250D02*
Y50550D01*
X32650Y30700D02*
X32950D01*
X32800Y30550D02*
Y30850D01*
X28450Y53000D02*
X28750D01*
X28600Y52850D02*
Y53150D01*
X33917Y21867D02*
X34217D01*
X34067Y21717D02*
Y22017D01*
X26805Y27150D02*
X27105D01*
X26955Y27000D02*
Y27300D01*
X21256Y25678D02*
X21556D01*
X21406Y25528D02*
Y25828D01*
X26253Y53064D02*
X26553D01*
X26403Y52914D02*
Y53214D01*
X41646Y41470D02*
X41946D01*
X41796Y41320D02*
Y41620D01*
X40046Y41870D02*
X40346D01*
X40196Y41720D02*
Y42020D01*
X46243Y35073D02*
X46543D01*
X46393Y34923D02*
Y35223D01*
X52967Y67587D02*
X53267D01*
X53117Y67437D02*
Y67737D01*
X38247Y42270D02*
X38547D01*
X38397Y42120D02*
Y42420D01*
X45444Y34873D02*
X45744D01*
X45594Y34723D02*
Y35023D01*
X52052Y67587D02*
X52352D01*
X52202Y67437D02*
Y67737D01*
X42756Y16799D02*
X43056D01*
X42906Y16649D02*
Y16949D01*
X35898Y37374D02*
X36198D01*
X36048Y37223D02*
Y37523D01*
X35898Y38326D02*
X36198D01*
X36048Y38176D02*
Y38476D01*
X43518Y16419D02*
X43818D01*
X43668Y16268D02*
Y16569D01*
X40646Y14084D02*
X40946D01*
X40796Y13934D02*
Y14234D01*
X35441Y38936D02*
X35741D01*
X35591Y38786D02*
Y39086D01*
X46843Y15083D02*
X47143D01*
X46993Y14933D02*
Y15233D01*
X33050Y55100D02*
X33350D01*
X33200Y54950D02*
Y55250D01*
X49309Y58595D02*
X49609D01*
X49459Y58445D02*
Y58745D01*
X32088Y68044D02*
X32388D01*
X32238Y67894D02*
Y68194D01*
X33002Y77798D02*
X33302D01*
X33152Y77648D02*
Y77948D01*
X15450Y84100D02*
X15750D01*
X15600Y83950D02*
Y84250D01*
X47023Y21257D02*
X47323D01*
X47173Y21107D02*
Y21407D01*
X43708Y5751D02*
X44008D01*
X43859Y5601D02*
Y5900D01*
X29230Y29944D02*
X29531D01*
X29381Y29794D02*
Y30094D01*
X26853Y18682D02*
X27153D01*
X27003Y18532D02*
Y18832D01*
X26850Y19700D02*
X27150D01*
X27000Y19550D02*
Y19850D01*
X27653Y21880D02*
X27953D01*
X27803Y21730D02*
Y22030D01*
X33642Y21135D02*
X33942D01*
X33792Y20985D02*
Y21285D01*
X28452Y21880D02*
X28752D01*
X28602Y21730D02*
Y22030D01*
X26250Y21900D02*
X26550D01*
X26400Y21750D02*
Y22050D01*
X30651Y16483D02*
X30951D01*
X30801Y16333D02*
Y16633D01*
X33841Y19550D02*
X34141D01*
X33991Y19400D02*
Y19700D01*
X28050Y27700D02*
X28350D01*
X28200Y27550D02*
Y27850D01*
X33041Y24420D02*
X33340D01*
X33190Y24270D02*
Y24569D01*
X28852Y27077D02*
X29152D01*
X29002Y26927D02*
Y27227D01*
X28652Y27877D02*
X28952D01*
X28802Y27727D02*
Y28027D01*
X31936Y26286D02*
X32236D01*
X32086Y26136D02*
Y26436D01*
X35450Y6700D02*
X35750D01*
X35600Y6550D02*
Y6850D01*
X23650Y65900D02*
X23950D01*
X23800Y65750D02*
Y66050D01*
X26053Y59261D02*
X26353D01*
X26203Y59111D02*
Y59411D01*
X27453Y59261D02*
X27753D01*
X27603Y59111D02*
Y59411D01*
X29852Y74253D02*
X30152D01*
X30002Y74103D02*
Y74403D01*
X30850Y74300D02*
X31150D01*
X31000Y74150D02*
Y74450D01*
X34069Y53871D02*
X34369D01*
X34219Y53721D02*
Y54021D01*
X29452Y53864D02*
X29752D01*
X29602Y53714D02*
Y54014D01*
X33307Y53871D02*
X33607D01*
X33457Y53721D02*
Y54021D01*
X34050Y55100D02*
X34350D01*
X34200Y54950D02*
Y55250D01*
X42908Y71244D02*
X43208D01*
X43058Y71094D02*
Y71394D01*
X38641Y71244D02*
X38941D01*
X38791Y71094D02*
Y71394D01*
X40927Y70940D02*
X41227D01*
X41077Y70790D02*
Y71090D01*
X37648Y71455D02*
X37948D01*
X37798Y71305D02*
Y71605D01*
X50630Y68044D02*
X50930D01*
X50780Y67894D02*
Y68194D01*
X49106Y66012D02*
X49406D01*
X49256Y65862D02*
Y66162D01*
X47642Y68056D02*
X47942D01*
X47792Y67906D02*
Y68206D01*
X45643Y68056D02*
X45943D01*
X45793Y67906D02*
Y68206D01*
X43844Y68056D02*
X44144D01*
X43994Y67906D02*
Y68206D01*
X29345Y67282D02*
X29645D01*
X29495Y67132D02*
Y67432D01*
X38438Y68044D02*
X38738D01*
X38588Y67894D02*
Y68194D01*
X35746Y68044D02*
X36046D01*
X35896Y67894D02*
Y68194D01*
X34649Y71855D02*
X34949D01*
X34799Y71705D02*
Y72005D01*
X34049Y74853D02*
X34349D01*
X34199Y74703D02*
Y75003D01*
X32393Y77036D02*
X32693D01*
X32543Y76886D02*
Y77186D01*
X31851Y76052D02*
X32151D01*
X32001Y75902D02*
Y76202D01*
X34449Y62459D02*
X34749D01*
X34599Y62309D02*
Y62609D01*
X38647Y66257D02*
X38947D01*
X38797Y66107D02*
Y66407D01*
X51138Y60881D02*
X51438D01*
X51288Y60731D02*
Y61031D01*
X50641Y61460D02*
X50941D01*
X50791Y61310D02*
Y61610D01*
X44844Y63059D02*
X45144D01*
X44994Y62909D02*
Y63209D01*
X44844Y65058D02*
X45144D01*
X44994Y64908D02*
Y65208D01*
X51290Y63624D02*
X51590D01*
X51440Y63474D02*
Y63774D01*
X55438Y39871D02*
X55738D01*
X55588Y39721D02*
Y40021D01*
X35049Y59061D02*
X35349D01*
X35199Y58911D02*
Y59211D01*
X40241Y60424D02*
X40541D01*
X40391Y60274D02*
Y60574D01*
X44444Y60424D02*
X44744D01*
X44594Y60274D02*
Y60574D01*
X46643Y60260D02*
X46943D01*
X46793Y60110D02*
Y60410D01*
X50041Y59061D02*
X50341D01*
X50191Y58911D02*
Y59211D01*
X50071Y58138D02*
X50371D01*
X50221Y57988D02*
Y58288D01*
X35249Y53664D02*
X35549D01*
X35399Y53514D02*
Y53814D01*
X36648Y53664D02*
X36948D01*
X36798Y53514D02*
Y53814D01*
X50641Y50465D02*
X50941D01*
X50791Y50315D02*
Y50615D01*
X48442Y50465D02*
X48742D01*
X48592Y50315D02*
Y50615D01*
X18457Y21280D02*
X18757D01*
X18607Y21130D02*
Y21430D01*
X11006Y90904D02*
X11306D01*
X11156Y90754D02*
Y91054D01*
X25738Y88364D02*
X26038D01*
X25888Y88214D02*
Y88514D01*
X25738Y91920D02*
X26038D01*
X25888Y91770D02*
Y92070D01*
X25738Y94968D02*
X26038D01*
X25888Y94818D02*
Y95118D01*
X18626Y94968D02*
X18926D01*
X18776Y94818D02*
Y95118D01*
X11006Y93444D02*
X11306D01*
X11156Y93294D02*
Y93594D01*
X42850Y85500D02*
X43150D01*
X43000Y85350D02*
Y85650D01*
X34849Y82449D02*
X35149D01*
X34999Y82299D02*
Y82599D01*
X36914Y79220D02*
X37214D01*
X37064Y79070D02*
Y79370D01*
X31851Y80050D02*
X32151D01*
X32001Y79900D02*
Y80200D01*
X31326Y77950D02*
X31626D01*
X31476Y77800D02*
Y78100D01*
X31251Y79051D02*
X31551D01*
X31401Y78901D02*
Y79201D01*
X24654Y4289D02*
X24954D01*
X24804Y4139D02*
Y4439D01*
X22655Y3090D02*
X22955D01*
X22805Y2940D02*
Y3240D01*
X20656Y3090D02*
X20956D01*
X20806Y2940D02*
Y3240D01*
X32850Y92044D02*
X33150D01*
X33000Y91894D02*
Y92194D01*
X32850Y94043D02*
X33150D01*
X33000Y93893D02*
Y94193D01*
X41246Y94043D02*
X41546D01*
X41396Y93893D02*
Y94193D01*
X45042Y91412D02*
X45342D01*
X45192Y91262D02*
Y91562D01*
X47836Y91412D02*
X48136D01*
X47986Y91262D02*
Y91562D01*
X57234Y91412D02*
X57534D01*
X57384Y91262D02*
Y91562D01*
X55456Y91412D02*
X55756D01*
X55606Y91262D02*
Y91562D01*
X16050Y61500D02*
X16350D01*
X16200Y61350D02*
Y61650D01*
X21650Y64900D02*
X21950D01*
X21800Y64750D02*
Y65050D01*
X46566Y86713D02*
X46866D01*
X46716Y86563D02*
Y86863D01*
X53297Y88313D02*
X53597D01*
X53447Y88163D02*
Y88463D01*
X44280Y15771D02*
X44580D01*
X44430Y15621D02*
Y15921D01*
X22690Y11656D02*
X22990D01*
X22840Y11506D02*
Y11806D01*
X20150Y11656D02*
X20450D01*
X20300Y11506D02*
Y11806D01*
X21056Y691D02*
X21356D01*
X21206Y541D02*
Y841D01*
X22255Y691D02*
X22555D01*
X22405Y541D02*
Y841D01*
X23255Y691D02*
X23555D01*
X23405Y541D02*
Y841D01*
X30451Y1091D02*
X30751D01*
X30601Y941D02*
Y1241D01*
X41246Y10286D02*
X41546D01*
X41396Y10136D02*
Y10436D01*
X40246Y8687D02*
X40546D01*
X40396Y8537D02*
Y8837D01*
X39846Y6688D02*
X40146D01*
X39996Y6538D02*
Y6838D01*
X42445Y3889D02*
X42745D01*
X42595Y3739D02*
Y4039D01*
X42445Y2290D02*
X42745D01*
X42595Y2140D02*
Y2440D01*
X50630Y1496D02*
X50930D01*
X50780Y1346D02*
Y1646D01*
X48642Y1490D02*
X48942D01*
X48792Y1340D02*
Y1640D01*
X39247Y491D02*
X39547D01*
X39397Y341D02*
Y641D01*
X13825Y24839D02*
X14125D01*
X13975Y24689D02*
Y24989D01*
X16315Y27328D02*
X16615D01*
X16465Y27178D02*
Y27478D01*
X16315Y24127D02*
X16615D01*
X16465Y23977D02*
Y24277D01*
X16315Y21283D02*
X16615D01*
X16465Y21133D02*
Y21433D01*
X17610Y16228D02*
X17910D01*
X17760Y16078D02*
Y16378D01*
X17559Y28039D02*
X17859D01*
X17709Y27889D02*
Y28189D01*
X25454Y21880D02*
X25754D01*
X25604Y21730D02*
Y22030D01*
X18850Y64300D02*
X19150D01*
X19000Y64150D02*
Y64450D01*
X37648Y18682D02*
X37948D01*
X37798Y18532D02*
Y18832D01*
X37847Y24479D02*
X38147D01*
X37997Y24329D02*
Y24629D01*
X27050Y9300D02*
X27350D01*
X27200Y9150D02*
Y9450D01*
X22850Y10300D02*
X23150D01*
X23000Y10150D02*
Y10450D01*
X31451Y9486D02*
X31751D01*
X31601Y9336D02*
Y9636D01*
X31451Y11086D02*
X31751D01*
X31601Y10936D02*
Y11236D01*
X29250Y9500D02*
X29550D01*
X29400Y9350D02*
Y9650D01*
X35390Y11910D02*
X35690D01*
X35540Y11760D02*
Y12060D01*
X18457Y19081D02*
X18757D01*
X18607Y18931D02*
Y19231D01*
X33050Y11100D02*
X33350D01*
X33200Y10950D02*
Y11250D01*
X38650Y18900D02*
X38950D01*
X38800Y18750D02*
Y19050D01*
X14003Y14882D02*
X14303D01*
X14153Y14732D02*
Y15032D01*
X14003Y18260D02*
X14303D01*
X14153Y18110D02*
Y18410D01*
X17610Y18260D02*
X17910D01*
X17760Y18110D02*
Y18410D01*
X17610Y21308D02*
X17910D01*
X17760Y21158D02*
Y21458D01*
X17610Y22832D02*
X17910D01*
X17760Y22682D02*
Y22982D01*
X18457Y22680D02*
X18757D01*
X18607Y22530D02*
Y22830D01*
X64600Y57122D02*
X64900D01*
X64750Y56972D02*
Y57272D01*
X64600Y51788D02*
X64900D01*
X64750Y51638D02*
Y51938D01*
X64600Y46708D02*
X64900D01*
X64750Y46558D02*
Y46858D01*
X64600Y41628D02*
X64900D01*
X64750Y41478D02*
Y41778D01*
X64600Y36548D02*
X64900D01*
X64750Y36398D02*
Y36698D01*
X64600Y31468D02*
X64900D01*
X64750Y31318D02*
Y31618D01*
X64600Y26388D02*
X64900D01*
X64750Y26238D02*
Y26538D01*
X64600Y21308D02*
X64900D01*
X64750Y21158D02*
Y21458D01*
X64600Y16228D02*
X64900D01*
X64750Y16078D02*
Y16378D01*
X64600Y10894D02*
X64900D01*
X64750Y10744D02*
Y11044D01*
X64600Y6068D02*
X64900D01*
X64750Y5918D02*
Y6218D01*
X64600Y988D02*
X64900D01*
X64750Y838D02*
Y1138D01*
X57996Y69314D02*
X58296D01*
X58146Y69164D02*
Y69464D01*
X14250Y68300D02*
X14550D01*
X14400Y68150D02*
Y68450D01*
X8466Y74140D02*
X8766D01*
X8616Y73990D02*
Y74290D01*
X8466Y76680D02*
X8766D01*
X8616Y76530D02*
Y76830D01*
X7850Y67500D02*
X8150D01*
X8000Y67350D02*
Y67650D01*
X14250Y66900D02*
X14550D01*
X14400Y66750D02*
Y67050D01*
X9482Y80744D02*
X9782D01*
X9632Y80594D02*
Y80894D01*
X12022Y80744D02*
X12322D01*
X12172Y80594D02*
Y80894D01*
X30450Y87900D02*
X30750D01*
X30600Y87750D02*
Y88050D01*
X48450Y86900D02*
X48750D01*
X48600Y86750D02*
Y87050D01*
X23401Y70635D02*
X23701D01*
X23551Y70485D02*
Y70785D01*
X20450Y70100D02*
X20750D01*
X20600Y69950D02*
Y70250D01*
X18650Y70100D02*
X18950D01*
X18800Y69950D02*
Y70250D01*
X5926Y88364D02*
X6226D01*
X6076Y88214D02*
Y88514D01*
X64600Y61694D02*
X64900D01*
X64750Y61544D02*
Y61844D01*
X64600Y69060D02*
X64900D01*
X64750Y68910D02*
Y69210D01*
X64600Y76172D02*
X64900D01*
X64750Y76022D02*
Y76322D01*
X64600Y82268D02*
X64900D01*
X64750Y82118D02*
Y82418D01*
X64600Y87348D02*
X64900D01*
X64750Y87198D02*
Y87498D01*
X64600Y92174D02*
X64900D01*
X64750Y92024D02*
Y92324D01*
X30056Y84554D02*
X30356D01*
X30206Y84404D02*
Y84704D01*
X27821Y71092D02*
X28121D01*
X27971Y70942D02*
Y71242D01*
X24468Y86586D02*
X24768D01*
X24618Y86436D02*
Y86736D01*
X25992Y86586D02*
X26292D01*
X26142Y86436D02*
Y86736D01*
X27516Y86586D02*
X27816D01*
X27666Y86436D02*
Y86736D01*
X42645Y6688D02*
X42945D01*
X42795Y6538D02*
Y6838D01*
X21166Y83792D02*
X21466D01*
X21316Y83642D02*
Y83942D01*
X21166Y86332D02*
X21466D01*
X21316Y86182D02*
Y86482D01*
X21166Y88364D02*
X21466D01*
X21316Y88214D02*
Y88514D01*
X21166Y90904D02*
X21466D01*
X21316Y90754D02*
Y91054D01*
X19388Y90904D02*
X19688D01*
X19538Y90754D02*
Y91054D01*
X19134Y88364D02*
X19434D01*
X19284Y88214D02*
Y88514D01*
X19134Y86332D02*
X19434D01*
X19284Y86182D02*
Y86482D01*
X51519Y88491D02*
X51819D01*
X51669Y88341D02*
Y88641D01*
X18753Y84618D02*
X19053D01*
X18903Y84467D02*
Y84768D01*
X17458Y79451D02*
X17758D01*
X17608Y79301D02*
Y79601D01*
X15812Y79184D02*
X16112D01*
X15962Y79034D02*
Y79334D01*
X15859Y75253D02*
X16159D01*
X16009Y75103D02*
Y75403D01*
X17658Y74053D02*
X17958D01*
X17808Y73903D02*
Y74203D01*
X21856Y73853D02*
X22156D01*
X22006Y73703D02*
Y74003D01*
X26500Y83538D02*
X26800D01*
X26650Y83388D02*
Y83688D01*
X39650Y85500D02*
X39950D01*
X39800Y85350D02*
Y85650D01*
X44788Y73886D02*
X45088D01*
X44938Y73736D02*
Y74036D01*
X45042Y80744D02*
X45342D01*
X45192Y80594D02*
Y80894D01*
X51640Y83848D02*
X51940D01*
X51790Y83698D02*
Y83998D01*
X48442Y83848D02*
X48742D01*
X48592Y83698D02*
Y83998D01*
X39846Y84048D02*
X40146D01*
X39996Y83898D02*
Y84198D01*
X37448Y84248D02*
X37748D01*
X37598Y84098D02*
Y84398D01*
X37448Y85448D02*
X37748D01*
X37598Y85298D02*
Y85598D01*
X36048Y85448D02*
X36348D01*
X36198Y85298D02*
Y85598D01*
X28650Y78100D02*
X28950D01*
X28800Y77950D02*
Y78250D01*
X28532Y76426D02*
X28832D01*
X28682Y76276D02*
Y76576D01*
X28583Y75512D02*
X28883D01*
X28733Y75362D02*
Y75662D01*
X18250Y15500D02*
X18550D01*
X18400Y15350D02*
Y15650D01*
X16086Y15720D02*
X16386D01*
X16236Y15570D02*
Y15870D01*
X16086Y12672D02*
X16386D01*
X16236Y12522D02*
Y12822D01*
X14054Y12672D02*
X14354D01*
X14204Y12522D02*
Y12822D01*
X1354Y988D02*
X1654D01*
X1504Y838D02*
Y1138D01*
X1354Y6068D02*
X1654D01*
X1504Y5918D02*
Y6218D01*
X1354Y11148D02*
X1654D01*
X1504Y10998D02*
Y11298D01*
X1354Y16228D02*
X1654D01*
X1504Y16078D02*
Y16378D01*
X1354Y21308D02*
X1654D01*
X1504Y21158D02*
Y21458D01*
X1354Y26388D02*
X1654D01*
X1504Y26238D02*
Y26538D01*
X1354Y31468D02*
X1654D01*
X1504Y31318D02*
Y31618D01*
X1354Y36548D02*
X1654D01*
X1504Y36398D02*
Y36698D01*
X1354Y41628D02*
X1654D01*
X1504Y41478D02*
Y41778D01*
X1354Y46454D02*
X1654D01*
X1504Y46304D02*
Y46604D01*
X1354Y51788D02*
X1654D01*
X1504Y51638D02*
Y51938D01*
X1354Y56868D02*
X1654D01*
X1504Y56718D02*
Y57018D01*
X1354Y61948D02*
X1654D01*
X1504Y61798D02*
Y62098D01*
X1354Y93952D02*
X1654D01*
X1504Y93802D02*
Y94102D01*
X1354Y88872D02*
X1654D01*
X1504Y88722D02*
Y89022D01*
X1354Y84300D02*
X1654D01*
X1504Y84150D02*
Y84450D01*
X1354Y79474D02*
X1654D01*
X1504Y79324D02*
Y79624D01*
X1354Y74140D02*
X1654D01*
X1504Y73990D02*
Y74290D01*
X4402Y69060D02*
X4702D01*
X4552Y68910D02*
Y69210D01*
X1354Y69060D02*
X1654D01*
X1504Y68910D02*
Y69210D01*
X1354Y66012D02*
X1654D01*
X1504Y65862D02*
Y66162D01*
X20456Y53864D02*
X20756D01*
X20606Y53714D02*
Y54014D01*
X28052Y54863D02*
X28352D01*
X28202Y54713D02*
Y55013D01*
X26253Y54863D02*
X26553D01*
X26403Y54713D02*
Y55013D01*
X26253Y54064D02*
X26553D01*
X26403Y53914D02*
Y54214D01*
X40046Y20081D02*
X40346D01*
X40196Y19931D02*
Y20231D01*
X36406Y35278D02*
X36706D01*
X36556Y35128D02*
Y35428D01*
X37847Y32874D02*
X38147D01*
X37997Y32724D02*
Y33024D01*
X38847Y32475D02*
X39147D01*
X38997Y32325D02*
Y32625D01*
X11514Y52194D02*
X11814D01*
X11664Y52044D02*
Y52344D01*
X13800Y45489D02*
X14100D01*
X13950Y45339D02*
Y45639D01*
X45244Y36073D02*
X45544D01*
X45394Y35923D02*
Y36223D01*
X33849Y48866D02*
X34149D01*
X33999Y48716D02*
Y49016D01*
X33849Y47267D02*
X34149D01*
X33999Y47117D02*
Y47417D01*
X42604Y24153D02*
X42904D01*
X42754Y24003D02*
Y24303D01*
X47250Y6500D02*
X47550D01*
X47400Y6350D02*
Y6650D01*
X54694Y3020D02*
X54994D01*
X54844Y2870D02*
Y3170D01*
X52941Y3325D02*
X53241D01*
X53091Y3175D02*
Y3475D01*
X50630Y4544D02*
X50930D01*
X50780Y4394D02*
Y4694D01*
X50450Y6500D02*
X50750D01*
X50600Y6350D02*
Y6650D01*
X50041Y10886D02*
X50341D01*
X50191Y10736D02*
Y11036D01*
X48598Y14284D02*
X48898D01*
X48748Y14134D02*
Y14434D01*
X46443Y19481D02*
X46743D01*
X46593Y19331D02*
Y19631D01*
X45044Y19481D02*
X45344D01*
X45194Y19331D02*
Y19631D01*
X45044Y18482D02*
X45344D01*
X45194Y18332D02*
Y18632D01*
X46443Y18482D02*
X46743D01*
X46593Y18332D02*
Y18632D01*
X48598Y16736D02*
X48898D01*
X48748Y16586D02*
Y16886D01*
X48598Y19276D02*
X48898D01*
X48748Y19126D02*
Y19426D01*
X48598Y22832D02*
X48898D01*
X48748Y22682D02*
Y22982D01*
X48090Y24102D02*
X48390D01*
X48240Y23952D02*
Y24252D01*
X54839Y38671D02*
X55139D01*
X54989Y38521D02*
Y38821D01*
X49442Y49066D02*
X49742D01*
X49592Y48916D02*
Y49216D01*
X45244Y37872D02*
X45544D01*
X45394Y37722D02*
Y38022D01*
X42445Y39271D02*
X42745D01*
X42595Y39121D02*
Y39421D01*
X43245Y28477D02*
X43545D01*
X43395Y28327D02*
Y28627D01*
X41994Y28477D02*
X42294D01*
X42144Y28327D02*
Y28627D01*
X41994Y29436D02*
X42294D01*
X42144Y29286D02*
Y29586D01*
X43772Y31722D02*
X44072D01*
X43922Y31572D02*
Y31872D01*
X38247Y47267D02*
X38547D01*
X38397Y47117D02*
Y47417D01*
X28052Y54064D02*
X28352D01*
X28202Y53914D02*
Y54214D01*
X26754Y48994D02*
X27054D01*
X26904Y48844D02*
Y49144D01*
X26653Y46068D02*
X26953D01*
X26803Y45918D02*
Y46218D01*
X26754Y47667D02*
X27054D01*
X26904Y47517D02*
Y47817D01*
X34831Y49604D02*
X35131D01*
X34981Y49454D02*
Y49754D01*
X36048Y49604D02*
X36348D01*
X36198Y49454D02*
Y49754D01*
X38447Y49666D02*
X38747D01*
X38597Y49516D02*
Y49816D01*
X38489Y47927D02*
X38789D01*
X38639Y47777D02*
Y48077D01*
X38489Y48866D02*
X38789D01*
X38639Y48716D02*
Y49016D01*
X36048Y48866D02*
X36348D01*
X36198Y48716D02*
Y49016D01*
X36050Y47318D02*
X36350D01*
X36200Y47168D02*
Y47468D01*
X41994Y31722D02*
X42294D01*
X42144Y31572D02*
Y31872D01*
X41207Y35684D02*
X41507D01*
X41357Y35534D02*
Y35834D01*
X41845Y39471D02*
X42145D01*
X41995Y39321D02*
Y39621D01*
X37248Y44269D02*
X37548D01*
X37398Y44119D02*
Y44419D01*
X34649Y44468D02*
X34949D01*
X34799Y44318D02*
Y44618D01*
X17458Y38783D02*
X17758D01*
X17608Y38633D02*
Y38933D01*
X22855Y39071D02*
X23155D01*
X23005Y38921D02*
Y39221D01*
X18457Y48466D02*
X18757D01*
X18607Y48316D02*
Y48616D01*
X15781Y46860D02*
X16081D01*
X15931Y46710D02*
Y47010D01*
X11362Y51432D02*
X11662D01*
X11512Y51282D02*
Y51582D01*
X42604Y14247D02*
X42904D01*
X42754Y14097D02*
Y14397D01*
X43213Y11046D02*
X43513D01*
X43363Y10896D02*
Y11196D01*
X39647Y65458D02*
X39947D01*
X39797Y65308D02*
Y65608D01*
X40046Y62659D02*
X40346D01*
X40196Y62509D02*
Y62809D01*
X47252Y49019D02*
X47552D01*
X47402Y48869D02*
Y49169D01*
X12650Y85300D02*
X12950D01*
X12800Y85150D02*
Y85450D01*
X26878Y72845D02*
X27178D01*
X27028Y72695D02*
Y72995D01*
X42146Y22781D02*
X42446D01*
X42296Y22631D02*
Y22931D01*
X42908Y22781D02*
X43208D01*
X43058Y22631D02*
Y22931D01*
X45194Y25829D02*
X45494D01*
X45344Y25679D02*
Y25979D01*
X45194Y25067D02*
X45494D01*
X45344Y24917D02*
Y25217D01*
X53881Y60729D02*
X54181D01*
X54031Y60579D02*
Y60879D01*
X53881Y61643D02*
X54181D01*
X54031Y61493D02*
Y61793D01*
X13800Y55852D02*
X14100D01*
X13950Y55702D02*
Y56002D01*
X12022Y63472D02*
X12322D01*
X12172Y63322D02*
Y63622D01*
X13038Y69568D02*
X13338D01*
X13188Y69418D02*
Y69718D01*
X40046Y81450D02*
X40346D01*
X40196Y81300D02*
Y81600D01*
X22372Y92999D02*
X22673D01*
X22522Y92850D02*
Y93149D01*
X23325Y92999D02*
X23625D01*
X23475Y92850D02*
Y93149D01*
X51650Y9300D02*
X51950D01*
X51800Y9150D02*
Y9450D01*
X28052Y7887D02*
X28352D01*
X28202Y7737D02*
Y8037D01*
X51250Y3100D02*
X51550D01*
X51400Y2950D02*
Y3250D01*
X20850Y20100D02*
X21150D01*
X21000Y19950D02*
Y20250D01*
X31072Y84046D02*
X31372D01*
X31222Y83896D02*
Y84196D01*
X23455Y75053D02*
X23755D01*
X23605Y74903D02*
Y75203D01*
X36406Y81506D02*
X36706D01*
X36556Y81356D02*
Y81656D01*
X23340Y75900D02*
X23640D01*
X23490Y75750D02*
Y76050D01*
X30251Y25878D02*
X30551D01*
X30401Y25728D02*
Y26028D01*
X46871Y22172D02*
X47171D01*
X47021Y22022D02*
Y22322D01*
X42451Y26794D02*
X42751D01*
X42601Y26644D02*
Y26944D01*
X46871Y25677D02*
X47171D01*
X47021Y25527D02*
Y25827D01*
X46871Y25067D02*
X47171D01*
X47021Y24917D02*
Y25217D01*
X39047Y81450D02*
X39347D01*
X39197Y81300D02*
Y81600D01*
X25718Y81760D02*
X26018D01*
X25868Y81610D02*
Y81910D01*
X30251Y25278D02*
X30551D01*
X30401Y25128D02*
Y25428D01*
X42445Y26078D02*
X42745D01*
X42595Y25928D02*
Y26228D01*
X28252Y13284D02*
X28552D01*
X28402Y13134D02*
Y13434D01*
X28252Y14084D02*
X28552D01*
X28402Y13934D02*
Y14234D01*
X21656Y13484D02*
X21956D01*
X21806Y13334D02*
Y13634D01*
X20856Y13484D02*
X21156D01*
X21006Y13334D02*
Y13634D01*
X27653Y24479D02*
X27953D01*
X27803Y24329D02*
Y24629D01*
X21456Y56662D02*
X21756D01*
X21606Y56512D02*
Y56812D01*
X21456Y57262D02*
X21756D01*
X21606Y57112D02*
Y57412D01*
X26853Y24479D02*
X27153D01*
X27003Y24329D02*
Y24629D01*
M02*
